<svg width="16" height="16" viewBox="0 0 16 16" fill="none" xmlns="http://www.w3.org/2000/svg">
<g clip-path="url(#clip0_952_162)">
<path d="M8 16C12.4183 16 16 12.4183 16 8C16 3.58172 12.4183 0 8 0C3.58172 0 0 3.58172 0 8C0 12.4183 3.58172 16 8 16Z" fill="#1E4DD7"/>
<path d="M11.22 4.31194C11.22 4.31194 11.22 4.31194 11.22 4.30356C11.22 4.30356 11.22 4.29518 11.22 4.2868C11.1446 2.68598 4.86702 2.68598 4.7832 4.2868C4.7832 4.2868 4.7832 4.29518 4.7832 4.30356C4.7832 4.30356 4.7832 4.30356 4.7832 4.31194C4.7832 6.48268 6.02363 8.25951 7.60769 8.52771L7.74179 11.7377C6.47622 11.8048 5.49561 12.1736 5.49561 12.6261C5.49561 13.129 6.66899 13.5313 8.11894 13.5313C9.5689 13.5313 10.7423 13.129 10.7423 12.6261C10.7423 12.1568 9.69462 11.7713 8.37038 11.7293L8.46257 8.51933C10.0215 8.22599 11.2284 6.46592 11.2368 4.31194H11.22ZM8.0016 3.47381C9.71138 3.47381 10.8009 3.95993 10.8093 4.30356C10.8093 4.63881 9.71138 5.1333 8.00999 5.1333C6.30859 5.1333 5.21065 4.64719 5.21065 4.30356C5.21065 3.96831 6.30859 3.47381 8.01837 3.47381H8.0016Z" fill="#FFFBF1"/>
</g>
<defs>
<clipPath id="clip0_952_162">
<rect width="16" height="16" fill="white"/>
</clipPath>
</defs>
</svg>
