<svg width="1457" height="140" viewBox="0 0 1457 140" fill="none" xmlns="http://www.w3.org/2000/svg">
<path d="M1454.54 21.2387C1424.28 21.2387 1424.28 2 1394.02 2C1363.76 2 1363.76 21.2387 1333.5 21.2387C1303.24 21.2387 1303.24 2 1272.98 2C1242.72 2 1242.72 21.2387 1212.46 21.2387C1182.2 21.2387 1182.2 2 1151.95 2C1121.7 2 1121.69 21.2387 1091.42 21.2387C1061.15 21.2387 1061.16 2 1030.9 2C1000.63 2 1000.64 21.2387 970.384 21.2387C940.124 21.2387 940.124 2 909.864 2C879.603 2 879.603 21.2387 849.353 21.2387C819.102 21.2387 819.092 2 788.842 2C758.592 2 758.581 21.2387 728.331 21.2387C698.081 21.2387 698.071 2 667.82 2C637.57 2 637.56 21.2387 607.31 21.2387C577.059 21.2387 577.049 2 546.789 2C516.528 2 516.528 21.2387 486.258 21.2387C455.987 21.2387 455.997 2 425.737 2C395.476 2 395.476 21.2387 365.206 21.2387C334.935 21.2387 334.945 2 304.685 2C274.425 2 274.425 21.2387 244.154 21.2387C213.884 21.2387 213.863 2 183.603 2C153.342 2 153.343 21.2387 123.072 21.2387C92.8015 21.2387 92.8116 2 62.541 2C32.2705 2 32.2705 21.2387 2 21.2387C2 15.5421 2 137.967 2 137.967C32.2705 137.967 32.2604 118.728 62.541 118.728C92.8216 118.728 92.8116 137.967 123.082 137.967C153.353 137.967 153.343 118.728 183.613 118.728C213.884 118.728 213.873 137.967 244.134 137.967C274.394 137.967 274.394 118.728 304.665 118.728C334.935 118.728 334.925 137.967 365.186 137.967C395.446 137.967 395.446 118.728 425.717 118.728C455.987 118.728 455.977 137.967 486.238 137.967C516.498 137.967 516.498 118.728 546.768 118.728C577.039 118.728 577.039 137.967 607.289 137.967C637.54 137.967 637.55 118.728 667.8 118.728C698.051 118.728 698.061 137.967 728.311 137.967C758.561 137.967 758.571 118.728 788.822 118.728C819.072 118.728 819.082 137.967 849.333 137.967C879.583 137.967 879.583 118.728 909.843 118.728C940.104 118.728 940.104 137.967 970.364 137.967C1000.62 137.967 1000.61 118.728 1030.88 118.728C1061.14 118.728 1061.14 137.967 1091.4 137.967C1121.66 137.967 1121.68 118.728 1151.93 118.728C1182.18 118.728 1182.18 137.967 1212.44 137.967C1242.7 137.967 1242.69 118.728 1272.96 118.728C1303.23 118.728 1303.22 137.967 1333.48 137.967C1363.74 137.967 1363.73 118.728 1394 118.728C1424.27 118.728 1424.26 137.967 1454.52 137.967V21.2387H1454.54Z" fill="#104AE0" stroke="#104AE0" stroke-width="3" stroke-miterlimit="10"/>
</svg>
