<svg width="600" height="459" viewBox="0 0 600 459" fill="none" xmlns="http://www.w3.org/2000/svg">
<g clip-path="url(#clip0_775_380)">
<path d="M226.916 291.845C260.699 291.845 288.085 282.411 288.085 270.774C288.085 259.137 260.699 249.703 226.916 249.703C193.133 249.703 165.746 259.137 165.746 270.774C165.746 282.411 193.133 291.845 226.916 291.845Z" stroke="#104AE0" stroke-width="3" stroke-linecap="round" stroke-linejoin="round"/>
<path d="M229.124 457.822C258.527 457.822 282.364 449.608 282.364 439.476C282.364 429.344 258.527 421.13 229.124 421.13C199.721 421.13 175.885 429.344 175.885 439.476C175.885 449.608 199.721 457.822 229.124 457.822Z" stroke="#104AE0" stroke-width="3" stroke-linecap="round" stroke-linejoin="round"/>
<path d="M288.085 270.554C288.085 316.168 260.695 353.142 226.916 353.142C193.136 353.142 165.746 316.168 165.746 270.554" stroke="#104AE0" stroke-width="3" stroke-linecap="round" stroke-linejoin="round"/>
<path d="M203.841 356.551C203.841 356.551 171.02 384.957 201.734 390.329C239.192 396.879 258.432 396.525 255.775 406.703C253.119 416.881 199.958 419.544 137.5 415.554C108.483 413.701 58.7095 427.335 13.7303 442.46" stroke="#104AE0" stroke-width="3" stroke-linecap="round" stroke-linejoin="round"/>
<path d="M1.17889 381.713C24.4269 380.221 47.8085 378.226 60.8708 375.721C60.8708 375.721 100.293 369.085 129.978 357.132C159.655 345.179 172.34 335.888 187.399 335" stroke="#104AE0" stroke-width="3" stroke-linecap="round" stroke-linejoin="round"/>
<path d="M265.576 334.891C265.576 334.891 299.324 342.328 246.273 348.996" stroke="#104AE0" stroke-width="3" stroke-linecap="round" stroke-linejoin="round"/>
<path d="M233.628 367.31C246.886 367.797 260.294 367.852 273.514 366.666C277.255 366.328 281.012 366.046 284.682 365.205C286.851 364.71 289.987 363.642 291.433 361.86C293.508 359.291 290.254 357.092 288.235 355.561C282.018 350.849 271.989 346.946 259.626 347.056" stroke="#104AE0" stroke-width="3" stroke-linecap="round" stroke-linejoin="round"/>
<path d="M242.061 396.761C249.126 396.706 256.726 395.865 263.737 395.245C269.176 394.758 275.172 394.852 279.959 391.844C284.265 389.135 281.334 386.315 278.457 384.14C276.296 382.507 273.624 381.328 270.747 380.504" stroke="#104AE0" stroke-width="3" stroke-linecap="round" stroke-linejoin="round"/>
<path d="M229.517 381.179C242.776 381.666 262.094 381.344 275.322 380.158C280.446 379.703 285.578 379.664 290.357 377.504C291.685 376.907 293.06 376.067 293.516 374.692C293.917 373.475 293.477 372.108 292.691 371.095C290.553 368.331 287.417 366.556 283.888 365.433" stroke="#104AE0" stroke-width="3" stroke-linecap="round" stroke-linejoin="round"/>
<path d="M254.251 402.054C254.251 402.054 249.826 401.284 245.173 401.748C238.854 402.384 234.649 407.646 236.339 413.756" stroke="#104AE0" stroke-width="3" stroke-linecap="round" stroke-linejoin="round"/>
<path d="M232.787 394.538L233.981 351.619C233.981 351.619 224.943 353.425 220.723 351.619L222.428 393.439L232.787 394.538Z" fill="#104AE0"/>
<path d="M223.355 416.073L224.369 440.843C224.762 445.241 231.23 445.154 231.498 440.741L232.213 415.138C229.981 415.436 226.043 415.923 223.355 416.073Z" fill="#104AE0"/>
<path d="M274.991 205.252C277.404 202.731 276.233 195.49 272.783 187.205C269.325 178.919 262.189 174.922 261.01 181.095C260.357 184.487 261.442 189.616 262.982 194.304C264.177 197.933 265.757 201.679 267.761 204.271C269.765 206.862 273.467 206.799 274.999 205.244L274.991 205.252Z" fill="#104AE0"/>
<path d="M414.024 86.4753C403.948 90.6063 380.032 99.7792 370.727 105.536C359.692 112.361 353.758 122.633 345.859 132.568C325.323 158.382 293.233 169.322 263.132 179.485" stroke="#104AE0" stroke-width="3" stroke-miterlimit="10"/>
<path d="M273.137 205.024C302.633 194.791 332.664 187.652 363.936 194.281C373.485 196.307 382.814 199.527 392.536 200.485C395.719 200.799 398.918 200.862 402.117 200.729C421.019 199.967 439.865 192.961 457.824 187.495C473.708 182.658 567.14 151.149 597.862 137.806C597.862 137.806 607.341 90.2921 566.833 41.0269L523.953 52.0532" stroke="#104AE0" stroke-width="3" stroke-miterlimit="10"/>
<path d="M292.078 199.158C292.078 199.158 292.887 178.134 282.513 173.053" stroke="#104AE0" stroke-width="3" stroke-miterlimit="10"/>
<path d="M422.284 164.924C423.256 164.924 424.044 164.137 424.044 163.165C424.044 162.194 423.256 161.406 422.284 161.406C421.312 161.406 420.523 162.194 420.523 163.165C420.523 164.137 421.312 164.924 422.284 164.924Z" fill="#104AE0"/>
<path d="M411.43 168.678C412.402 168.678 413.191 167.891 413.191 166.919C413.191 165.948 412.402 165.16 411.43 165.16C410.458 165.16 409.67 165.948 409.67 166.919C409.67 167.891 410.458 168.678 411.43 168.678Z" fill="#104AE0"/>
<path d="M400.451 172.432C401.423 172.432 402.211 171.645 402.211 170.673C402.211 169.702 401.423 168.914 400.451 168.914C399.478 168.914 398.69 169.702 398.69 170.673C398.69 171.645 399.478 172.432 400.451 172.432Z" fill="#104AE0"/>
<path d="M396.875 179.76C397.847 179.76 398.635 178.972 398.635 178C398.635 177.029 397.847 176.241 396.875 176.241C395.902 176.241 395.114 177.029 395.114 178C395.114 178.972 395.902 179.76 396.875 179.76Z" fill="#104AE0"/>
<path d="M400.568 190.55C401.541 190.55 402.329 189.763 402.329 188.791C402.329 187.82 401.541 187.032 400.568 187.032C399.596 187.032 398.808 187.82 398.808 188.791C398.808 189.763 399.596 190.55 400.568 190.55Z" fill="#104AE0"/>
<path d="M404.207 183.341C405.18 183.341 405.968 182.553 405.968 181.582C405.968 180.61 405.18 179.822 404.207 179.822C403.235 179.822 402.447 180.61 402.447 181.582C402.447 182.553 403.235 183.341 404.207 183.341Z" fill="#104AE0"/>
<path d="M407.791 175.951C408.764 175.951 409.552 175.163 409.552 174.191C409.552 173.22 408.764 172.432 407.791 172.432C406.819 172.432 406.031 173.22 406.031 174.191C406.031 175.163 406.819 175.951 407.791 175.951Z" fill="#104AE0"/>
<path d="M415.203 179.587C416.175 179.587 416.963 178.799 416.963 177.828C416.963 176.856 416.175 176.068 415.203 176.068C414.23 176.068 413.442 176.856 413.442 177.828C413.442 178.799 414.23 179.587 415.203 179.587Z" fill="#104AE0"/>
<path d="M422.417 183.144C423.39 183.144 424.178 182.357 424.178 181.385C424.178 180.414 423.39 179.626 422.417 179.626C421.445 179.626 420.657 180.414 420.657 181.385C420.657 182.357 421.445 183.144 422.417 183.144Z" fill="#104AE0"/>
<path d="M429.782 186.757C430.754 186.757 431.542 185.969 431.542 184.998C431.542 184.026 430.754 183.239 429.782 183.239C428.809 183.239 428.021 184.026 428.021 184.998C428.021 185.969 428.809 186.757 429.782 186.757Z" fill="#104AE0"/>
<path d="M437.02 190.464C437.993 190.464 438.781 189.676 438.781 188.705C438.781 187.733 437.993 186.946 437.02 186.946C436.048 186.946 435.26 187.733 435.26 188.705C435.26 189.676 436.048 190.464 437.02 190.464Z" fill="#104AE0"/>
<path d="M418.661 172.197C419.633 172.197 420.421 171.409 420.421 170.437C420.421 169.466 419.633 168.678 418.661 168.678C417.688 168.678 416.9 169.466 416.9 170.437C416.9 171.409 417.688 172.197 418.661 172.197Z" fill="#104AE0"/>
<path d="M426.072 175.833C427.044 175.833 427.833 175.045 427.833 174.074C427.833 173.102 427.044 172.314 426.072 172.314C425.1 172.314 424.312 173.102 424.312 174.074C424.312 175.045 425.1 175.833 426.072 175.833Z" fill="#104AE0"/>
<path d="M433.295 179.391C434.267 179.391 435.055 178.603 435.055 177.631C435.055 176.66 434.267 175.872 433.295 175.872C432.323 175.872 431.534 176.66 431.534 177.631C431.534 178.603 432.323 179.391 433.295 179.391Z" fill="#104AE0"/>
<path d="M440.651 183.003C441.624 183.003 442.412 182.216 442.412 181.244C442.412 180.272 441.624 179.485 440.651 179.485C439.679 179.485 438.891 180.272 438.891 181.244C438.891 182.216 439.679 183.003 440.651 183.003Z" fill="#104AE0"/>
<path d="M447.89 186.71C448.862 186.71 449.65 185.922 449.65 184.951C449.65 183.979 448.862 183.192 447.89 183.192C446.917 183.192 446.129 183.979 446.129 184.951C446.129 185.922 446.917 186.71 447.89 186.71Z" fill="#104AE0"/>
<path d="M429.64 168.443C430.613 168.443 431.401 167.655 431.401 166.683C431.401 165.712 430.613 164.924 429.64 164.924C428.668 164.924 427.88 165.712 427.88 166.683C427.88 167.655 428.668 168.443 429.64 168.443Z" fill="#104AE0"/>
<path d="M437.052 172.079C438.024 172.079 438.812 171.291 438.812 170.32C438.812 169.348 438.024 168.56 437.052 168.56C436.079 168.56 435.291 169.348 435.291 170.32C435.291 171.291 436.079 172.079 437.052 172.079Z" fill="#104AE0"/>
<path d="M444.267 175.637C445.239 175.637 446.027 174.849 446.027 173.877C446.027 172.906 445.239 172.118 444.267 172.118C443.294 172.118 442.506 172.906 442.506 173.877C442.506 174.849 443.294 175.637 444.267 175.637Z" fill="#104AE0"/>
<path d="M451.631 179.249C452.603 179.249 453.391 178.462 453.391 177.49C453.391 176.518 452.603 175.731 451.631 175.731C450.659 175.731 449.87 176.518 449.87 177.49C449.87 178.462 450.659 179.249 451.631 179.249Z" fill="#104AE0"/>
<path d="M458.869 182.956C459.842 182.956 460.63 182.168 460.63 181.197C460.63 180.225 459.842 179.438 458.869 179.438C457.897 179.438 457.109 180.225 457.109 181.197C457.109 182.168 457.897 182.956 458.869 182.956Z" fill="#104AE0"/>
<path d="M433.193 161.037C434.165 161.037 434.953 160.249 434.953 159.278C434.953 158.306 434.165 157.518 433.193 157.518C432.22 157.518 431.432 158.306 431.432 159.278C431.432 160.249 432.22 161.037 433.193 161.037Z" fill="#104AE0"/>
<path d="M440.604 164.673C441.576 164.673 442.365 163.885 442.365 162.914C442.365 161.942 441.576 161.155 440.604 161.155C439.632 161.155 438.844 161.942 438.844 162.914C438.844 163.885 439.632 164.673 440.604 164.673Z" fill="#104AE0"/>
<path d="M447.827 168.231C448.799 168.231 449.587 167.443 449.587 166.471C449.587 165.5 448.799 164.712 447.827 164.712C446.855 164.712 446.066 165.5 446.066 166.471C446.066 167.443 446.855 168.231 447.827 168.231Z" fill="#104AE0"/>
<path d="M455.183 171.843C456.156 171.843 456.944 171.056 456.944 170.084C456.944 169.112 456.156 168.325 455.183 168.325C454.211 168.325 453.423 169.112 453.423 170.084C453.423 171.056 454.211 171.843 455.183 171.843Z" fill="#104AE0"/>
<path d="M462.422 175.55C463.394 175.55 464.182 174.763 464.182 173.791C464.182 172.819 463.394 172.032 462.422 172.032C461.449 172.032 460.661 172.819 460.661 173.791C460.661 174.763 461.449 175.55 462.422 175.55Z" fill="#104AE0"/>
<path d="M469.841 179.171C470.813 179.171 471.601 178.383 471.601 177.411C471.601 176.44 470.813 175.652 469.841 175.652C468.869 175.652 468.081 176.44 468.081 177.411C468.081 178.383 468.869 179.171 469.841 179.171Z" fill="#104AE0"/>
<path d="M480.671 175.33C481.644 175.33 482.432 174.543 482.432 173.571C482.432 172.599 481.644 171.812 480.671 171.812C479.699 171.812 478.911 172.599 478.911 173.571C478.911 174.543 479.699 175.33 480.671 175.33Z" fill="#104AE0"/>
<path d="M444.07 157.377C445.042 157.377 445.831 156.589 445.831 155.618C445.831 154.646 445.042 153.859 444.07 153.859C443.098 153.859 442.31 154.646 442.31 155.618C442.31 156.589 443.098 157.377 444.07 157.377Z" fill="#104AE0"/>
<path d="M451.481 161.013C452.454 161.013 453.242 160.226 453.242 159.254C453.242 158.282 452.454 157.495 451.481 157.495C450.509 157.495 449.721 158.282 449.721 159.254C449.721 160.226 450.509 161.013 451.481 161.013Z" fill="#104AE0"/>
<path d="M458.696 164.571C459.669 164.571 460.457 163.783 460.457 162.812C460.457 161.84 459.669 161.052 458.696 161.052C457.724 161.052 456.936 161.84 456.936 162.812C456.936 163.783 457.724 164.571 458.696 164.571Z" fill="#104AE0"/>
<path d="M466.061 168.191C467.033 168.191 467.821 167.404 467.821 166.432C467.821 165.461 467.033 164.673 466.061 164.673C465.088 164.673 464.3 165.461 464.3 166.432C464.3 167.404 465.088 168.191 466.061 168.191Z" fill="#104AE0"/>
<path d="M473.299 171.89C474.271 171.89 475.06 171.103 475.06 170.131C475.06 169.16 474.271 168.372 473.299 168.372C472.327 168.372 471.539 169.16 471.539 170.131C471.539 171.103 472.327 171.89 473.299 171.89Z" fill="#104AE0"/>
<path d="M491.847 171.576C492.819 171.576 493.608 170.789 493.608 169.817C493.608 168.845 492.819 168.058 491.847 168.058C490.875 168.058 490.087 168.845 490.087 169.817C490.087 170.789 490.875 171.576 491.847 171.576Z" fill="#104AE0"/>
<path d="M455.238 153.623C456.211 153.623 456.999 152.835 456.999 151.864C456.999 150.892 456.211 150.105 455.238 150.105C454.266 150.105 453.478 150.892 453.478 151.864C453.478 152.835 454.266 153.623 455.238 153.623Z" fill="#104AE0"/>
<path d="M462.65 157.259C463.622 157.259 464.41 156.472 464.41 155.5C464.41 154.528 463.622 153.741 462.65 153.741C461.677 153.741 460.889 154.528 460.889 155.5C460.889 156.472 461.677 157.259 462.65 157.259Z" fill="#104AE0"/>
<path d="M469.872 160.817C470.845 160.817 471.633 160.029 471.633 159.058C471.633 158.086 470.845 157.299 469.872 157.299C468.9 157.299 468.112 158.086 468.112 159.058C468.112 160.029 468.9 160.817 469.872 160.817Z" fill="#104AE0"/>
<path d="M477.229 164.437C478.201 164.437 478.989 163.65 478.989 162.678C478.989 161.707 478.201 160.919 477.229 160.919C476.256 160.919 475.468 161.707 475.468 162.678C475.468 163.65 476.256 164.437 477.229 164.437Z" fill="#104AE0"/>
<path d="M484.467 168.136C485.44 168.136 486.228 167.349 486.228 166.377C486.228 165.406 485.44 164.618 484.467 164.618C483.495 164.618 482.707 165.406 482.707 166.377C482.707 167.349 483.495 168.136 484.467 168.136Z" fill="#104AE0"/>
<path d="M502.622 167.916C503.595 167.916 504.383 167.129 504.383 166.157C504.383 165.186 503.595 164.398 502.622 164.398C501.65 164.398 500.862 165.186 500.862 166.157C500.862 167.129 501.65 167.916 502.622 167.916Z" fill="#104AE0"/>
<path d="M466.013 149.971C466.986 149.971 467.774 149.184 467.774 148.212C467.774 147.24 466.986 146.453 466.013 146.453C465.041 146.453 464.253 147.24 464.253 148.212C464.253 149.184 465.041 149.971 466.013 149.971Z" fill="#104AE0"/>
<path d="M473.425 153.607C474.397 153.607 475.185 152.82 475.185 151.848C475.185 150.877 474.397 150.089 473.425 150.089C472.453 150.089 471.664 150.877 471.664 151.848C471.664 152.82 472.453 153.607 473.425 153.607Z" fill="#104AE0"/>
<path d="M480.648 157.165C481.62 157.165 482.408 156.377 482.408 155.406C482.408 154.434 481.62 153.647 480.648 153.647C479.675 153.647 478.887 154.434 478.887 155.406C478.887 156.377 479.675 157.165 480.648 157.165Z" fill="#104AE0"/>
<path d="M488.004 160.778C488.976 160.778 489.764 159.99 489.764 159.018C489.764 158.047 488.976 157.259 488.004 157.259C487.032 157.259 486.243 158.047 486.243 159.018C486.243 159.99 487.032 160.778 488.004 160.778Z" fill="#104AE0"/>
<path d="M495.242 164.484C496.215 164.484 497.003 163.697 497.003 162.725C497.003 161.754 496.215 160.966 495.242 160.966C494.27 160.966 493.482 161.754 493.482 162.725C493.482 163.697 494.27 164.484 495.242 164.484Z" fill="#104AE0"/>
<path d="M513.398 164.068C514.37 164.068 515.158 163.281 515.158 162.309C515.158 161.337 514.37 160.55 513.398 160.55C512.425 160.55 511.637 161.337 511.637 162.309C511.637 163.281 512.425 164.068 513.398 164.068Z" fill="#104AE0"/>
<path d="M476.789 146.115C477.761 146.115 478.549 145.327 478.549 144.356C478.549 143.384 477.761 142.597 476.789 142.597C475.816 142.597 475.028 143.384 475.028 144.356C475.028 145.327 475.816 146.115 476.789 146.115Z" fill="#104AE0"/>
<path d="M484.2 149.751C485.172 149.751 485.961 148.964 485.961 147.992C485.961 147.02 485.172 146.233 484.2 146.233C483.228 146.233 482.44 147.02 482.44 147.992C482.44 148.964 483.228 149.751 484.2 149.751Z" fill="#104AE0"/>
<path d="M491.423 153.309C492.395 153.309 493.183 152.521 493.183 151.55C493.183 150.578 492.395 149.791 491.423 149.791C490.451 149.791 489.662 150.578 489.662 151.55C489.662 152.521 490.451 153.309 491.423 153.309Z" fill="#104AE0"/>
<path d="M498.779 156.929C499.751 156.929 500.54 156.142 500.54 155.17C500.54 154.199 499.751 153.411 498.779 153.411C497.807 153.411 497.019 154.199 497.019 155.17C497.019 156.142 497.807 156.929 498.779 156.929Z" fill="#104AE0"/>
<path d="M506.018 160.628C506.99 160.628 507.778 159.841 507.778 158.869C507.778 157.898 506.99 157.11 506.018 157.11C505.045 157.11 504.257 157.898 504.257 158.869C504.257 159.841 505.045 160.628 506.018 160.628Z" fill="#104AE0"/>
<path d="M524.566 160.314C525.538 160.314 526.326 159.527 526.326 158.555C526.326 157.583 525.538 156.796 524.566 156.796C523.593 156.796 522.805 157.583 522.805 158.555C522.805 159.527 523.593 160.314 524.566 160.314Z" fill="#104AE0"/>
<path d="M487.965 142.361C488.937 142.361 489.725 141.573 489.725 140.602C489.725 139.63 488.937 138.843 487.965 138.843C486.992 138.843 486.204 139.63 486.204 140.602C486.204 141.573 486.992 142.361 487.965 142.361Z" fill="#104AE0"/>
<path d="M495.376 145.997C496.348 145.997 497.137 145.21 497.137 144.238C497.137 143.266 496.348 142.479 495.376 142.479C494.404 142.479 493.616 143.266 493.616 144.238C493.616 145.21 494.404 145.997 495.376 145.997Z" fill="#104AE0"/>
<path d="M502.591 149.555C503.563 149.555 504.351 148.767 504.351 147.796C504.351 146.824 503.563 146.037 502.591 146.037C501.619 146.037 500.83 146.824 500.83 147.796C500.83 148.767 501.619 149.555 502.591 149.555Z" fill="#104AE0"/>
<path d="M509.955 153.175C510.927 153.175 511.716 152.388 511.716 151.416C511.716 150.445 510.927 149.657 509.955 149.657C508.983 149.657 508.195 150.445 508.195 151.416C508.195 152.388 508.983 153.175 509.955 153.175Z" fill="#104AE0"/>
<path d="M517.194 156.874C518.166 156.874 518.954 156.087 518.954 155.115C518.954 154.144 518.166 153.356 517.194 153.356C516.221 153.356 515.433 154.144 515.433 155.115C515.433 156.087 516.221 156.874 517.194 156.874Z" fill="#104AE0"/>
<path d="M535.341 156.655C536.313 156.655 537.101 155.867 537.101 154.895C537.101 153.924 536.313 153.136 535.341 153.136C534.369 153.136 533.58 153.924 533.58 154.895C533.58 155.867 534.369 156.655 535.341 156.655Z" fill="#104AE0"/>
<path d="M498.74 138.709C499.712 138.709 500.5 137.922 500.5 136.95C500.5 135.978 499.712 135.191 498.74 135.191C497.768 135.191 496.979 135.978 496.979 136.95C496.979 137.922 497.768 138.709 498.74 138.709Z" fill="#104AE0"/>
<path d="M506.151 142.345C507.124 142.345 507.912 141.558 507.912 140.586C507.912 139.615 507.124 138.827 506.151 138.827C505.179 138.827 504.391 139.615 504.391 140.586C504.391 141.558 505.179 142.345 506.151 142.345Z" fill="#104AE0"/>
<path d="M513.366 145.903C514.338 145.903 515.127 145.115 515.127 144.144C515.127 143.172 514.338 142.385 513.366 142.385C512.394 142.385 511.606 143.172 511.606 144.144C511.606 145.115 512.394 145.903 513.366 145.903Z" fill="#104AE0"/>
<path d="M520.73 149.516C521.703 149.516 522.491 148.728 522.491 147.756C522.491 146.785 521.703 145.997 520.73 145.997C519.758 145.997 518.97 146.785 518.97 147.756C518.97 148.728 519.758 149.516 520.73 149.516Z" fill="#104AE0"/>
<path d="M527.969 153.223C528.941 153.223 529.729 152.435 529.729 151.463C529.729 150.492 528.941 149.704 527.969 149.704C526.997 149.704 526.208 150.492 526.208 151.463C526.208 152.435 526.997 153.223 527.969 153.223Z" fill="#104AE0"/>
<path d="M546.116 152.806C547.088 152.806 547.877 152.019 547.877 151.047C547.877 150.076 547.088 149.288 546.116 149.288C545.144 149.288 544.356 150.076 544.356 151.047C544.356 152.019 545.144 152.806 546.116 152.806Z" fill="#104AE0"/>
<path d="M509.515 134.853C510.487 134.853 511.276 134.065 511.276 133.094C511.276 132.122 510.487 131.335 509.515 131.335C508.543 131.335 507.755 132.122 507.755 133.094C507.755 134.065 508.543 134.853 509.515 134.853Z" fill="#104AE0"/>
<path d="M516.926 138.497C517.899 138.497 518.687 137.71 518.687 136.738C518.687 135.766 517.899 134.979 516.926 134.979C515.954 134.979 515.166 135.766 515.166 136.738C515.166 137.71 515.954 138.497 516.926 138.497Z" fill="#104AE0"/>
<path d="M524.141 142.047C525.114 142.047 525.902 141.259 525.902 140.288C525.902 139.316 525.114 138.529 524.141 138.529C523.169 138.529 522.381 139.316 522.381 140.288C522.381 141.259 523.169 142.047 524.141 142.047Z" fill="#104AE0"/>
<path d="M531.506 145.667C532.478 145.667 533.266 144.88 533.266 143.908C533.266 142.937 532.478 142.149 531.506 142.149C530.533 142.149 529.745 142.937 529.745 143.908C529.745 144.88 530.533 145.667 531.506 145.667Z" fill="#104AE0"/>
<path d="M538.744 149.366C539.716 149.366 540.505 148.579 540.505 147.607C540.505 146.636 539.716 145.848 538.744 145.848C537.772 145.848 536.984 146.636 536.984 147.607C536.984 148.579 537.772 149.366 538.744 149.366Z" fill="#104AE0"/>
<path d="M557.418 149.013C558.39 149.013 559.178 148.225 559.178 147.254C559.178 146.282 558.39 145.495 557.418 145.495C556.446 145.495 555.657 146.282 555.657 147.254C555.657 148.225 556.446 149.013 557.418 149.013Z" fill="#104AE0"/>
<path d="M520.817 131.06C521.789 131.06 522.577 130.272 522.577 129.301C522.577 128.329 521.789 127.541 520.817 127.541C519.845 127.541 519.056 128.329 519.056 129.301C519.056 130.272 519.845 131.06 520.817 131.06Z" fill="#104AE0"/>
<path d="M528.228 134.696C529.201 134.696 529.989 133.908 529.989 132.937C529.989 131.965 529.201 131.178 528.228 131.178C527.256 131.178 526.468 131.965 526.468 132.937C526.468 133.908 527.256 134.696 528.228 134.696Z" fill="#104AE0"/>
<path d="M535.443 138.254C536.415 138.254 537.204 137.466 537.204 136.494C537.204 135.523 536.415 134.735 535.443 134.735C534.471 134.735 533.683 135.523 533.683 136.494C533.683 137.466 534.471 138.254 535.443 138.254Z" fill="#104AE0"/>
<path d="M542.807 141.874C543.78 141.874 544.568 141.087 544.568 140.115C544.568 139.143 543.78 138.356 542.807 138.356C541.835 138.356 541.047 139.143 541.047 140.115C541.047 141.087 541.835 141.874 542.807 141.874Z" fill="#104AE0"/>
<path d="M550.046 145.573C551.018 145.573 551.806 144.786 551.806 143.814C551.806 142.842 551.018 142.055 550.046 142.055C549.074 142.055 548.285 142.842 548.285 143.814C548.285 144.786 549.074 145.573 550.046 145.573Z" fill="#104AE0"/>
<path d="M568.193 145.353C569.165 145.353 569.954 144.566 569.954 143.594C569.954 142.623 569.165 141.835 568.193 141.835C567.221 141.835 566.433 142.623 566.433 143.594C566.433 144.566 567.221 145.353 568.193 145.353Z" fill="#104AE0"/>
<path d="M531.592 127.408C532.564 127.408 533.353 126.62 533.353 125.649C533.353 124.677 532.564 123.89 531.592 123.89C530.62 123.89 529.832 124.677 529.832 125.649C529.832 126.62 530.62 127.408 531.592 127.408Z" fill="#104AE0"/>
<path d="M539.003 131.044C539.976 131.044 540.764 130.257 540.764 129.285C540.764 128.313 539.976 127.526 539.003 127.526C538.031 127.526 537.243 128.313 537.243 129.285C537.243 130.257 538.031 131.044 539.003 131.044Z" fill="#104AE0"/>
<path d="M546.218 134.602C547.191 134.602 547.979 133.814 547.979 132.843C547.979 131.871 547.191 131.083 546.218 131.083C545.246 131.083 544.458 131.871 544.458 132.843C544.458 133.814 545.246 134.602 546.218 134.602Z" fill="#104AE0"/>
<path d="M553.583 138.214C554.555 138.214 555.343 137.427 555.343 136.455C555.343 135.484 554.555 134.696 553.583 134.696C552.61 134.696 551.822 135.484 551.822 136.455C551.822 137.427 552.61 138.214 553.583 138.214Z" fill="#104AE0"/>
<path d="M560.821 141.921C561.793 141.921 562.582 141.134 562.582 140.162C562.582 139.191 561.793 138.403 560.821 138.403C559.849 138.403 559.061 139.191 559.061 140.162C559.061 141.134 559.849 141.921 560.821 141.921Z" fill="#104AE0"/>
<path d="M578.968 141.505C579.941 141.505 580.729 140.717 580.729 139.746C580.729 138.774 579.941 137.987 578.968 137.987C577.996 137.987 577.208 138.774 577.208 139.746C577.208 140.717 577.996 141.505 578.968 141.505Z" fill="#104AE0"/>
<path d="M542.367 123.552C543.34 123.552 544.128 122.764 544.128 121.793C544.128 120.821 543.34 120.033 542.367 120.033C541.395 120.033 540.607 120.821 540.607 121.793C540.607 122.764 541.395 123.552 542.367 123.552Z" fill="#104AE0"/>
<path d="M549.779 127.188C550.751 127.188 551.539 126.4 551.539 125.429C551.539 124.457 550.751 123.67 549.779 123.67C548.806 123.67 548.018 124.457 548.018 125.429C548.018 126.4 548.806 127.188 549.779 127.188Z" fill="#104AE0"/>
<path d="M556.994 130.746C557.966 130.746 558.754 129.958 558.754 128.987C558.754 128.015 557.966 127.227 556.994 127.227C556.021 127.227 555.233 128.015 555.233 128.987C555.233 129.958 556.021 130.746 556.994 130.746Z" fill="#104AE0"/>
<path d="M564.358 134.366C565.33 134.366 566.118 133.579 566.118 132.607C566.118 131.635 565.33 130.848 564.358 130.848C563.385 130.848 562.597 131.635 562.597 132.607C562.597 133.579 563.385 134.366 564.358 134.366Z" fill="#104AE0"/>
<path d="M571.596 138.065C572.569 138.065 573.357 137.278 573.357 136.306C573.357 135.334 572.569 134.547 571.596 134.547C570.624 134.547 569.836 135.334 569.836 136.306C569.836 137.278 570.624 138.065 571.596 138.065Z" fill="#104AE0"/>
<path d="M589.979 137.963C590.952 137.963 591.74 137.175 591.74 136.204C591.74 135.232 590.952 134.445 589.979 134.445C589.007 134.445 588.219 135.232 588.219 136.204C588.219 137.175 589.007 137.963 589.979 137.963Z" fill="#104AE0"/>
<path d="M553.37 120.018C554.343 120.018 555.131 119.23 555.131 118.259C555.131 117.287 554.343 116.499 553.37 116.499C552.398 116.499 551.61 117.287 551.61 118.259C551.61 119.23 552.398 120.018 553.37 120.018Z" fill="#104AE0"/>
<path d="M560.782 123.654C561.754 123.654 562.542 122.866 562.542 121.895C562.542 120.923 561.754 120.136 560.782 120.136C559.809 120.136 559.021 120.923 559.021 121.895C559.021 122.866 559.809 123.654 560.782 123.654Z" fill="#104AE0"/>
<path d="M568.005 127.212C568.977 127.212 569.765 126.424 569.765 125.452C569.765 124.481 568.977 123.693 568.005 123.693C567.032 123.693 566.244 124.481 566.244 125.452C566.244 126.424 567.032 127.212 568.005 127.212Z" fill="#104AE0"/>
<path d="M575.361 130.824C576.333 130.824 577.121 130.037 577.121 129.065C577.121 128.093 576.333 127.306 575.361 127.306C574.389 127.306 573.6 128.093 573.6 129.065C573.6 130.037 574.389 130.824 575.361 130.824Z" fill="#104AE0"/>
<path d="M582.599 134.531C583.572 134.531 584.36 133.743 584.36 132.772C584.36 131.8 583.572 131.013 582.599 131.013C581.627 131.013 580.839 131.8 580.839 132.772C580.839 133.743 581.627 134.531 582.599 134.531Z" fill="#104AE0"/>
<path d="M564.146 116.366C565.118 116.366 565.906 115.578 565.906 114.607C565.906 113.635 565.118 112.847 564.146 112.847C563.173 112.847 562.385 113.635 562.385 114.607C562.385 115.578 563.173 116.366 564.146 116.366Z" fill="#104AE0"/>
<path d="M571.557 120.002C572.529 120.002 573.317 119.214 573.317 118.243C573.317 117.271 572.529 116.484 571.557 116.484C570.585 116.484 569.796 117.271 569.796 118.243C569.796 119.214 570.585 120.002 571.557 120.002Z" fill="#104AE0"/>
<path d="M578.78 123.552C579.752 123.552 580.54 122.764 580.54 121.793C580.54 120.821 579.752 120.033 578.78 120.033C577.807 120.033 577.019 120.821 577.019 121.793C577.019 122.764 577.807 123.552 578.78 123.552Z" fill="#104AE0"/>
<path d="M586.136 127.172C587.108 127.172 587.897 126.385 587.897 125.413C587.897 124.442 587.108 123.654 586.136 123.654C585.164 123.654 584.376 124.442 584.376 125.413C584.376 126.385 585.164 127.172 586.136 127.172Z" fill="#104AE0"/>
<path d="M593.375 130.871C594.347 130.871 595.135 130.084 595.135 129.112C595.135 128.141 594.347 127.353 593.375 127.353C592.402 127.353 591.614 128.141 591.614 129.112C591.614 130.084 592.402 130.871 593.375 130.871Z" fill="#104AE0"/>
<path d="M574.929 112.51C575.901 112.51 576.689 111.722 576.689 110.751C576.689 109.779 575.901 108.991 574.929 108.991C573.956 108.991 573.168 109.779 573.168 110.751C573.168 111.722 573.956 112.51 574.929 112.51Z" fill="#104AE0"/>
<path d="M582.332 116.146C583.304 116.146 584.093 115.358 584.093 114.387C584.093 113.415 583.304 112.628 582.332 112.628C581.36 112.628 580.572 113.415 580.572 114.387C580.572 115.358 581.36 116.146 582.332 116.146Z" fill="#104AE0"/>
<path d="M589.555 119.704C590.527 119.704 591.315 118.916 591.315 117.944C591.315 116.973 590.527 116.185 589.555 116.185C588.583 116.185 587.794 116.973 587.794 117.944C587.794 118.916 588.583 119.704 589.555 119.704Z" fill="#104AE0"/>
<path d="M586.12 108.811C587.093 108.811 587.881 108.023 587.881 107.052C587.881 106.08 587.093 105.292 586.12 105.292C585.148 105.292 584.36 106.08 584.36 107.052C584.36 108.023 585.148 108.811 586.12 108.811Z" fill="#104AE0"/>
<path d="M593.335 112.361C594.308 112.361 595.096 111.573 595.096 110.601C595.096 109.63 594.308 108.842 593.335 108.842C592.363 108.842 591.575 109.63 591.575 110.601C591.575 111.573 592.363 112.361 593.335 112.361Z" fill="#104AE0"/>
<path d="M595.229 105.379C596.202 105.379 596.99 104.591 596.99 103.62C596.99 102.648 596.202 101.86 595.229 101.86C594.257 101.86 593.469 102.648 593.469 103.62C593.469 104.591 594.257 105.379 595.229 105.379Z" fill="#104AE0"/>
<path d="M596.911 123.316C597.884 123.316 598.672 122.529 598.672 121.557C598.672 120.585 597.884 119.798 596.911 119.798C595.939 119.798 595.151 120.585 595.151 121.557C595.151 122.529 595.939 123.316 596.911 123.316Z" fill="#104AE0"/>
<path d="M411.564 186.946C412.536 186.946 413.324 186.158 413.324 185.186C413.324 184.215 412.536 183.427 411.564 183.427C410.591 183.427 409.803 184.215 409.803 185.186C409.803 186.158 410.591 186.946 411.564 186.946Z" fill="#104AE0"/>
<path d="M408.003 194.336C408.976 194.336 409.764 193.548 409.764 192.577C409.764 191.605 408.976 190.817 408.003 190.817C407.031 190.817 406.243 191.605 406.243 192.577C406.243 193.548 407.031 194.336 408.003 194.336Z" fill="#104AE0"/>
<path d="M404.325 201.294C405.298 201.294 406.086 200.506 406.086 199.535C406.086 198.563 405.298 197.776 404.325 197.776C403.353 197.776 402.565 198.563 402.565 199.535C402.565 200.506 403.353 201.294 404.325 201.294Z" fill="#104AE0"/>
<path d="M415.132 197.367C416.104 197.367 416.892 196.58 416.892 195.608C416.892 194.636 416.104 193.849 415.132 193.849C414.16 193.849 413.371 194.636 413.371 195.608C413.371 196.58 414.16 197.367 415.132 197.367Z" fill="#104AE0"/>
<path d="M426.127 193.967C427.099 193.967 427.888 193.179 427.888 192.207C427.888 191.236 427.099 190.448 426.127 190.448C425.155 190.448 424.367 191.236 424.367 192.207C424.367 193.179 425.155 193.967 426.127 193.967Z" fill="#104AE0"/>
<path d="M418.999 190.385C419.971 190.385 420.759 189.598 420.759 188.626C420.759 187.655 419.971 186.867 418.999 186.867C418.026 186.867 417.238 187.655 417.238 188.626C417.238 189.598 418.026 190.385 418.999 190.385Z" fill="#104AE0"/>
<path d="M522.373 1.17803C512.855 2.67806 500.689 5.05768 491.643 8.4347C474.392 14.8825 426.465 44.7966 422.748 53.4433C422.748 53.4433 409.843 95.1378 413.183 99.5672C416.523 103.997 439.96 130.267 449.265 131.272C454.94 131.884 456.244 124.219 454.468 118.526" stroke="#104AE0" stroke-width="3" stroke-linecap="round" stroke-linejoin="round"/>
<path d="M443.111 58.9958C443.111 58.9958 435.464 94.5723 442.27 102.606C449.077 110.641 451.992 112.463 453.902 117.332C455.812 122.201 470.03 138.34 476.38 138.599C482.306 138.851 490.48 135.599 465.534 89.4911C465.534 89.4911 461.73 84.8182 464.89 79.9254C468.049 75.0327 469.637 66.3388 467.727 61.4696C467.727 61.4696 489.262 131.68 495.109 134.154C500.956 136.628 516.636 139.573 502.63 93.1508C491.321 55.6737 488.499 49.1396 488.499 49.1396" stroke="#104AE0" stroke-width="3" stroke-linecap="round" stroke-linejoin="round"/>
<path d="M511.04 48.7548C511.04 48.7548 531.694 97.376 524.314 112.557C516.934 127.738 508.635 113.24 505.412 102.921" stroke="#104AE0" stroke-width="3" stroke-linecap="round" stroke-linejoin="round"/>
<path d="M524.063 23.5763C524.063 23.5763 536.009 49.3909 515.465 59.1685" stroke="#104AE0" stroke-width="3" stroke-linecap="round" stroke-linejoin="round"/>
<path d="M528.37 39.9038C528.37 39.9038 549.283 34.1236 558.683 17.7726" stroke="#104AE0" stroke-width="3" stroke-linecap="round" stroke-linejoin="round"/>
<path d="M511.024 114.402C510.553 110.774 509.036 96.5907 514.121 96.9048C519.772 97.2504 521.925 105.135 523.56 112.832" stroke="#104AE0" stroke-width="3" stroke-linecap="round" stroke-linejoin="round"/>
<path d="M493.702 132.615C493.702 132.615 488.845 113.719 494.677 113.539C500.508 113.358 503.935 123.246 506.324 130.973" stroke="#104AE0" stroke-width="3" stroke-linecap="round" stroke-linejoin="round"/>
<path d="M471.546 136.44C471.546 136.44 458.138 122.79 465.691 118.958C470.454 116.539 479.201 121.958 482.455 131.115" stroke="#104AE0" stroke-width="3" stroke-linecap="round" stroke-linejoin="round"/>
<path d="M443.355 128.704C440.691 124.895 435.048 116.02 438.867 114.222C443.764 111.921 450.318 119.067 455.199 124.761" stroke="#104AE0" stroke-width="3" stroke-linecap="round" stroke-linejoin="round"/>
<g style="mix-blend-mode:multiply">
<path d="M264.444 183.16C256.978 180.129 248.191 185.069 244.269 192.105C240.347 199.142 240.057 207.553 239.805 215.603C239.554 223.653 239.137 232.088 235.011 239.007C231.073 245.612 224.291 249.939 219.103 255.617C207.197 268.662 204.886 289.513 213.633 304.851C214.356 306.115 215.197 307.411 217.17 307.332C218.821 307.27 220.275 306.202 220.998 304.717C222.483 301.678 221.461 298.379 221.406 295.159C221.225 284.761 230.727 277.01 239.695 271.732C248.663 266.447 258.888 260.91 261.984 250.975C264.57 242.666 261.293 233.823 260.483 225.161C259.854 218.423 261.937 210.381 266.959 206.658C271.125 203.572 273.467 198.53 272.5 193.433C271.722 189.357 269.568 185.249 264.444 183.16Z" fill="#FF462D"/>
</g>
<g style="mix-blend-mode:multiply">
<path d="M270.802 237.617C270.928 237.161 271.078 236.706 271.258 236.258C271.463 235.763 271.714 235.261 272.139 234.939C273.396 233.98 275.046 235.614 275.895 236.446C279.707 240.145 280.729 246.059 279.589 251.243C278.45 256.426 275.439 261.012 272.107 265.143C269.435 268.457 266.495 271.599 263.022 274.057C261.167 275.369 259.076 276.507 256.813 276.657C256.153 276.696 255.445 276.641 254.903 276.264C253.865 275.541 253.85 274.002 254.219 272.793C254.887 270.586 256.404 268.725 258.125 267.193C259.846 265.662 261.788 264.389 263.588 262.952C266.228 260.847 268.633 258.271 269.741 255.083C271.698 249.444 269.246 243.271 270.802 237.617Z" fill="#FF462D"/>
<path d="M174.289 274.002C168.568 264.028 165.078 252.774 164.3 241.3C163.789 233.831 164.387 226.229 162.72 218.925C160.37 208.59 153.721 199.755 150.318 189.718C149.187 186.388 148.424 182.768 149.32 179.359C150.216 175.951 153.195 172.896 156.724 172.919C161.667 172.951 164.591 178.315 166.43 182.901C169.715 191.084 173.024 199.346 174.564 208.032C178.274 228.946 170.823 251.47 173.818 272.502" fill="#FF462D"/>
<path d="M206.112 315.704C204.053 304.615 193.773 297.366 185.866 289.309C181.371 284.73 175.46 276.075 169 259.622" stroke="#FF462D" stroke-width="3" stroke-miterlimit="10"/>
<path d="M195.101 240.821C196.193 234.797 197.545 228.829 199.046 222.946C200.548 217.08 203.031 210.365 208.847 208.645C211.228 207.938 214.144 208.425 215.606 210.428C216.754 212.006 216.777 214.135 216.455 216.059C214.702 226.7 204.831 233.792 195.785 239.682" fill="#FF462D"/>
<path d="M196.673 299.605C191.218 279.17 192.366 256.559 197.341 235.818" stroke="#FF462D" stroke-width="3" stroke-miterlimit="10"/>
<path d="M180.467 174.663C181.606 175.464 182.903 176.076 184.349 176.461C192.83 178.715 195.95 169.644 203.102 170.508C208.564 171.168 214.372 178.283 220.023 174.482C225.509 170.791 231.686 164.822 229.36 157.573C228.417 154.628 229.384 152.312 232.409 149.076C235.75 145.495 238.092 141.191 238.367 136.345C238.5 133.997 238.107 131.562 236.881 129.552C235.003 126.481 231.144 124.761 227.607 125.405C226.656 125.578 225.753 126.057 224.919 126.693C223.497 127.785 221.477 126.654 221.666 124.871C221.799 123.607 221.784 122.358 221.438 121.196C219.261 113.963 208.855 111.638 202.725 116.06C202.426 116.272 202.135 116.507 201.844 116.759C200.713 117.748 199.101 117.905 197.757 117.222C195.62 116.138 193.026 115.541 190.983 115.455C186.314 115.259 182.471 118.29 179.217 121.636C177.457 123.45 176.907 125.798 177.158 128.397C177.292 129.772 176.443 131.052 175.13 131.476C172.167 132.434 169.637 134.39 168.489 137.28C166.807 141.536 168.458 146.382 170.753 150.34C171.476 151.597 172.356 152.853 173.37 153.937C174.753 155.414 175.374 157.479 174.965 159.458C173.794 165.121 175.806 171.396 180.459 174.663H180.467ZM196.987 150.23C196.083 147.301 196.233 144.065 197.404 141.434C198.575 138.803 200.736 136.793 203.306 135.976C204.564 135.576 205.939 135.458 207.252 135.858C212.352 137.421 211.747 144.678 209.437 148.141C207.904 150.45 205.609 151.982 203.125 152.932C202.772 153.065 202.41 153.191 202.049 153.301C201.145 153.584 200.155 153.788 199.243 153.387C198.088 152.877 197.388 151.526 196.987 150.23Z" fill="#FF462D"/>
<path d="M194.268 296.856C185.74 287.4 183.398 271.889 183.406 259.167C183.414 236.219 187.501 213.286 195.415 191.744C198.567 183.152 202.379 174.356 204.21 165.474" stroke="#FF462D" stroke-width="3" stroke-miterlimit="10"/>
<path d="M192.083 201.019L184.483 192.302C183.87 191.595 183.202 190.857 182.298 190.597C180.545 190.095 178.754 191.823 178.604 193.637C178.455 195.451 179.469 197.171 180.671 198.537C183.312 201.545 187.061 203.556 191.03 204.106" fill="#FF462D"/>
<path d="M239.247 322.074C242.807 302.236 266.708 291.013 270.834 264.586" stroke="#FF462D" stroke-width="3" stroke-miterlimit="10"/>
<path d="M288.329 301.654C297.752 300.743 307.034 299.235 315.381 294.123C317.676 292.717 319.9 290.997 321.142 288.61C324.843 281.494 316.646 275.149 310.115 277.112C303.584 279.075 299.293 285.327 293.131 288.021C287.826 290.337 281.806 290.094 276.092 291.013C263.509 293.031 252.522 300.72 243.318 309.531C254.251 306.139 265.513 303.759 276.917 302.652C280.713 302.283 284.533 302.016 288.329 301.654Z" fill="#FF462D"/>
<path d="M295.787 229.92C296.188 231.923 298.57 232.787 300.173 231.522C302.083 230.022 304.055 228.766 305.305 228.758C307.207 228.742 309.038 229.755 309.777 231.514C310.296 232.763 310.154 233.965 309.596 235.072C308.677 236.894 309.714 239.015 311.718 239.407C312.418 239.541 313.125 239.831 313.817 240.342C315.247 241.386 315.97 243.138 315.868 244.897C315.75 246.97 314.823 247.952 313.463 248.384C311.726 248.934 310.807 250.866 311.475 252.554C312.033 253.968 312.158 255.546 311.687 257.007C310.602 260.392 306.539 262.481 303.159 261.405C301.43 260.855 300 259.638 298.648 258.429C295.394 255.507 292.353 252.35 289.555 248.996C287.181 246.153 284.855 243.106 283.763 239.549C282.513 235.48 283.102 230.603 286.788 227.933C288.447 226.732 290.592 226.355 292.573 226.881C294.553 227.407 295.504 228.546 295.787 229.928V229.92Z" fill="#FF462D"/>
<path d="M248.443 304.811C263.965 293.793 276.862 278.698 286.67 262.395C288.761 258.915 290.718 255.326 292.738 251.784" stroke="#FF462D" stroke-width="3" stroke-miterlimit="10"/>
<path d="M143.308 236.682C137.625 232.63 130.953 230.085 124.249 228.075C118.071 226.221 111.595 224.721 105.111 225.506C99.9869 226.119 89.8326 229.944 89.0467 236.156C88.638 239.423 95.4049 239.533 97.3697 239.556C99.7197 239.58 100.702 242.58 98.8316 244.002L92.4341 248.886C90.7364 250.182 88.858 251.871 89.0781 253.991C89.1803 254.973 89.7383 255.86 90.4378 256.567C93.7623 259.929 99.5154 259.206 103.61 256.842C104.883 256.112 106.07 255.248 107.225 254.345C108.805 253.112 110.998 254.792 110.181 256.622C109.465 258.232 108.907 259.905 108.617 261.656C107.807 266.526 109.638 272.196 114.102 274.3C117.623 275.958 121.962 274.999 125.137 272.753C128.312 270.507 130.528 267.154 132.43 263.753C137.484 254.69 140.62 246.224 141.987 235.936" fill="#FF462D"/>
<path d="M172.12 266.73C163.758 252.169 154.075 243.413 140.612 236.266C140.109 235.999 139.598 235.74 139.079 235.496" stroke="#FF462D" stroke-width="3" stroke-miterlimit="10"/>
<path d="M273.113 316.725C273.569 316.545 274.009 317.024 273.781 317.44C262.715 337.663 244.536 350.865 223.984 350.865C201.711 350.865 184.452 335.362 173.794 312.21C173.794 312.21 194.834 305.942 232.009 313.882C259.705 319.804 269.773 318.021 273.105 316.725H273.113Z" fill="#FF462D"/>
</g>
</g>
<defs>
<clipPath id="clip0_775_380">
<rect width="600" height="459" fill="white"/>
</clipPath>
</defs>
</svg>
