<svg width="439" height="426" viewBox="0 0 439 426" fill="none" xmlns="http://www.w3.org/2000/svg">
<path d="M3.80946 221.114C-0.571158 232.24 4.0415 248.388 6.72334 259.116C8.39876 265.817 11.9732 269.866 14.7182 275.905C16.6219 280.093 17.0702 285.593 18.7156 290.118C26.0494 310.286 46.4691 320.308 66.7733 318.277C86.5824 316.296 101.678 310.301 109.857 291.361C113.402 283.151 120.555 271.118 121.049 262.225C121.776 249.145 125.176 234.704 125.176 221.372" stroke="#104AE0" stroke-width="3" stroke-linecap="round"/>
<path d="M63.3333 319.032C63.3333 339.958 63.8485 353.819 63.5908 376.237C63.5908 387.317 61.8877 401.76 61.8877 409.329" stroke="#104AE0" stroke-width="3" stroke-linecap="round"/>
<path d="M275.975 114.378C283.058 90.4748 278.495 60.4447 278.495 35.5855C278.495 32.5112 276.814 19.3143 280.556 19.0941C288.613 18.6202 298.09 14.786 302.201 22.1862C306.416 29.773 303.733 46.0516 304.835 54.5965C306.501 67.5075 307.355 81.3883 307.355 94.4508C307.355 121.732 300.035 159.968 320.869 180.802C330.272 190.205 334.741 197.846 341.369 209.776C348.82 223.188 345.1 243.659 349.614 258.105C354.955 275.196 350.645 299.233 350.645 316.971C350.645 342.218 356.366 367.219 356.829 392.213C356.965 399.522 362.793 419.011 353.737 419.011C331.382 419.011 307.622 421.073 284.679 421.073H252.384C242.868 421.073 212.529 427.509 212.529 414.888C212.529 398.701 216.652 382.201 216.652 365.872C216.652 334.946 218.714 303.792 218.714 272.65C218.714 250.262 212.529 216.991 230.051 201.531C279.068 160.302 273.122 124.008 275.975 114.378Z" stroke="#104AE0" stroke-width="3" stroke-linecap="round"/>
<path d="M281.072 18.0634C281.072 4.89741 278.422 2 292.81 2C305.271 2 299.109 8.78696 299.109 18.4914" stroke="#104AE0" stroke-width="3" stroke-linecap="round"/>
<path d="M218.714 256.158C230.29 256.801 241.256 262.343 253.071 262.343C266.358 262.343 279.419 264.404 292.925 264.404C311.592 264.404 340.596 262.6 348.584 258.22" stroke="#104AE0" stroke-width="3" stroke-linecap="round"/>
<path d="M217.683 362.322C236.925 381.564 331.061 382.936 354.253 359.23" stroke="#104AE0" stroke-width="3" stroke-linecap="round"/>
<path d="M9.2207 264.919C14.632 258.735 20.1918 256.833 24.3119 255.918C30.2115 254.607 33.8754 257.144 38.7026 259.826C46.3926 264.098 54.0237 267.022 63.4866 267.022C73.3961 267.022 79.5115 257.428 89.8695 257.428C100.284 257.428 112.297 264.229 121.311 258.22" stroke="#104AE0" stroke-width="3" stroke-linecap="round"/>
<path d="M124.918 221.372C124.918 231.761 97.8073 240.182 64.364 240.182C24.4239 243.79 3.80957 231.761 3.80957 221.372C3.80957 210.983 23.9085 205.138 64.364 202.561C111.004 199.469 124.918 210.983 124.918 221.372Z" stroke="#104AE0" stroke-width="3"/>
<path d="M38.9112 264.919C40.9492 265.372 50.9649 274.196 68.4583 265.693C72.1817 264.806 75.6841 262.864 79.2808 261.57C84.1456 259.818 87.5439 255.901 92.7089 255.901H110.746C113.333 255.901 127.495 250.232 125.028 260.316C125.692 261.57 118.734 322.897 66.6832 320.063C16.6937 327.278 6.08456 267.397 5.09814 265.177C5.17757 262.318 15.8828 257.798 17.6097 258.105C22.9956 259.063 29.2082 260.493 34.2157 262.858C35.7259 263.571 37.265 264.554 38.9112 264.919Z" fill="#EA9074" style="mix-blend-mode:multiply"/>
<path d="M118.734 410.535C118.734 417.493 92.4512 427.257 63.3335 423.134C31.1237 417.465 7.93262 417.493 7.93262 410.535C7.93262 403.577 28.0315 393.759 63.3335 397.936C93.9973 400.974 118.734 403.577 118.734 410.535Z" stroke="#104AE0" stroke-width="3"/>
<path d="M409.735 115.748C403.807 113.198 398.552 102.765 396.952 98.8992C395.533 102.852 383.842 108.308 378.321 108.886C386.497 114.61 390.232 126.679 389.895 129.795C394.35 122.266 403.468 117.485 409.735 115.748Z" stroke="#104AE0" stroke-width="3" stroke-linejoin="round"/>
<path d="M413.967 117.058C409.47 113.651 405.571 106.811 403.491 102.458C403.097 101.633 401.605 101.556 400.962 102.206C397.664 105.543 390.046 109.166 384.698 110.518C383.801 110.745 383.476 112.06 384.166 112.676C389.455 117.403 392.711 124.477 394.045 129.32C394.33 130.357 396.723 130.942 397.428 130.13C401.922 124.95 408.342 121.328 413.697 119.381C414.585 119.058 414.72 117.629 413.967 117.058Z" fill="#F9E0A5" style="mix-blend-mode:multiply"/>
<path d="M196.525 43.8053C190.112 44.529 180.377 38.0711 177.073 35.5062C177.798 39.643 170.348 50.1757 165.84 53.414C175.778 54.3336 185.003 62.9648 186.255 65.8387C186.392 57.0913 191.943 48.4199 196.525 43.8053Z" stroke="#104AE0" stroke-width="3" stroke-linejoin="round"/>
<path d="M200.85 42.846C195.255 42.1154 188.479 38.1071 184.516 35.3568C183.764 34.8354 182.43 35.5078 182.194 36.3912C180.983 40.9243 176.162 47.8465 172.187 51.6711C171.52 52.3126 171.89 53.6158 172.794 53.8094C179.731 55.2931 186.065 59.824 189.623 63.3699C190.385 64.129 192.753 63.4513 192.963 62.3964C194.299 55.6701 198.08 49.3425 201.767 44.9972C202.378 44.2771 201.787 42.9682 200.85 42.846Z" fill="#F9E0A5" style="mix-blend-mode:multiply"/>
<path d="M426.447 248.005C421.492 248.746 413.76 244.009 411.125 242.112C411.803 245.301 406.319 253.68 402.913 256.318C410.647 256.753 418.045 263.19 419.097 265.384C418.958 258.595 423.022 251.713 426.447 248.005Z" stroke="#104AE0" stroke-width="3" stroke-linejoin="round"/>
<path d="M429.144 247.064C425.13 246.485 420.421 243.996 417.385 242.098C416.61 241.614 415.231 242.336 414.976 243.214C413.998 246.591 410.927 251.38 408.198 254.352C407.572 255.034 408.001 256.354 408.906 256.543C413.646 257.532 418.041 260.275 420.868 262.688C421.686 263.386 424.172 262.563 424.392 261.51C425.357 256.876 427.728 252.498 430.157 249.286C430.727 248.533 430.079 247.199 429.144 247.064Z" fill="#F9E0A5" style="mix-blend-mode:multiply"/>
<path d="M25.5438 89.0183C29.3452 92.2804 30.8216 101.228 31.1108 104.462C33.0783 101.862 43.0035 100.528 47.2273 101.379C42.4961 95.2441 42.5247 85.438 43.4962 83.207C38.452 87.7536 30.5889 89.1829 25.5438 89.0183Z" stroke="#104AE0" stroke-width="3" stroke-linejoin="round"/>
<path d="M23.0673 87.5938C25.2554 91.0083 26.4538 96.1979 27.0048 99.7358C27.1455 100.639 28.5939 101.21 29.4246 100.827C32.619 99.3582 38.2499 98.5478 42.283 98.6674C43.2078 98.6948 43.9258 97.5068 43.4763 96.6982C41.1234 92.4663 40.3227 87.3483 40.2982 83.6314C40.2911 82.5559 38.0416 81.2138 37.1019 81.7368C32.9655 84.0389 28.1029 85.1097 24.0845 85.3738C23.1422 85.4357 22.5578 86.7987 23.0673 87.5938Z" fill="#F9E0A5" style="mix-blend-mode:multiply"/>
<path d="M186.175 147.897C181.718 145.611 178.198 137.254 177.163 134.176C175.855 137.162 166.514 140.772 162.209 140.929C168.239 145.793 170.496 155.335 170.071 157.731C173.917 152.135 181.231 148.913 186.175 147.897Z" stroke="#104AE0" stroke-width="3" stroke-linejoin="round"/>
<path d="M188.915 148.705C185.992 145.895 183.617 141.127 182.257 137.815C181.91 136.969 180.368 136.752 179.649 137.317C176.885 139.49 171.598 141.59 167.648 142.414C166.742 142.603 166.321 143.925 166.946 144.607C170.221 148.174 172.192 152.965 173.082 156.574C173.339 157.618 175.839 158.399 176.631 157.671C180.118 154.469 184.597 152.295 188.443 151.101C189.345 150.822 189.596 149.36 188.915 148.705Z" fill="#F9E0A5" style="mix-blend-mode:multiply"/>
</svg>
