<svg width="585" height="404" viewBox="0 0 585 404" fill="none" xmlns="http://www.w3.org/2000/svg">
<path d="M440.647 277.873C455.875 280.175 471.097 282.666 486.176 285.837C502.11 289.184 517.881 293.515 533.483 298.166C541.868 300.665 550.198 303.319 558.481 306.13C564.157 308.058 570.124 310.305 574.035 315.105C578.489 320.564 576.757 327.536 574.062 333.436C571.788 338.406 568.923 343.179 565.453 347.415C551.468 364.476 530.373 373.581 509.592 379.345C488.81 385.109 465.597 388.137 443.376 390.744C408.738 394.811 373.821 395.727 338.972 395.666C304.143 395.605 269.274 395.096 234.452 394.274C199.501 393.453 164.55 391.735 129.755 388.232C112.348 386.48 94.9876 384.274 77.7159 381.49C62.895 379.107 47.9519 376.425 33.9118 370.933C27.2244 368.319 20.3673 364.972 14.7187 360.491C12.0437 358.373 9.77615 355.793 9.09722 352.364C8.35041 348.583 9.38237 344.849 10.6723 341.312C11.6703 338.569 12.9196 335.907 14.4947 333.443C16.321 330.585 18.8262 328.819 21.5826 326.898C27.2041 322.974 33.0089 319.301 39.0241 316.008C61.1502 303.896 85.8765 298.682 109.951 291.906C116.835 289.965 123.754 288.695 130.719 287.127C135.832 285.979 133.666 278.124 128.554 279.272C120.95 280.976 113.427 282.476 105.911 284.574C99.0408 286.489 92.1497 288.315 85.2655 290.189C73.0041 293.522 60.8311 297.093 49.1265 302.083C36.2677 307.569 23.5583 314.684 12.6005 323.395C7.54249 327.421 4.65708 333.884 2.57279 339.852C0.0743539 347.008 -0.217583 355.087 4.39909 361.476C9.01575 367.864 16.7826 371.999 23.7008 375.312C30.619 378.625 38.0872 381.273 45.5961 383.303C61.7544 387.682 78.5306 389.983 95.0895 392.258C131.215 397.214 167.592 399.984 204.016 401.464C240.44 402.944 276.742 403.182 313.098 403.623C349.835 404.071 386.639 404.003 423.273 400.914C448.957 398.748 475.068 395.748 500.243 390.085C522.898 384.987 546.124 376.935 563.634 361.109C572.392 353.193 579.819 342.914 583.492 331.61C585.801 324.495 585.515 316.864 580.912 310.76C576.825 305.342 570.762 301.914 564.489 299.605C547.869 293.488 530.672 288.634 513.57 284.106C498.009 279.985 482.353 276.597 466.5 273.847C458.618 272.482 450.722 271.22 442.813 270.018C440.62 269.685 438.461 270.568 437.802 272.863C437.252 274.784 438.475 277.547 440.647 277.873Z" fill="#104AE0"/>
<path d="M349.563 271.437C362.578 271.722 375.545 272.503 388.506 273.65C392.586 274.01 396.66 274.39 400.733 274.764C402.858 274.961 404.902 272.747 404.807 270.69C404.698 268.314 403.014 266.827 400.733 266.617C387.786 265.429 374.839 264.227 361.845 263.677C357.751 263.507 353.657 263.385 349.563 263.29C347.431 263.242 345.394 265.198 345.489 267.363C345.584 269.529 347.282 271.389 349.563 271.437Z" fill="#104AE0"/>
<path d="M170.932 279.211C175.168 278.545 179.405 277.907 183.648 277.316C184.11 277.255 184.571 277.187 185.033 277.126L185.305 277.092C185.759 277.031 185.671 277.045 185.04 277.126C185.04 277.113 185.617 277.052 185.583 277.052C186.554 276.923 187.525 276.794 188.502 276.671C190.295 276.447 192.087 276.23 193.879 276.026C201.015 275.219 208.164 274.621 215.326 274.132C220.065 273.806 224.811 273.528 229.557 273.256C231.682 273.134 233.732 271.471 233.63 269.183C233.535 267.078 231.838 264.98 229.557 265.109C214.03 266.006 198.557 267.139 183.146 269.23C178.346 269.882 173.559 270.602 168.773 271.349C167.829 271.498 166.797 272.435 166.335 273.223C165.826 274.098 165.609 275.382 165.928 276.359C166.668 278.654 168.678 279.557 170.939 279.204L170.932 279.211Z" fill="#104AE0"/>
<path d="M397.182 205.778C401.514 206.172 405.832 206.804 410.191 206.953C414.549 207.102 419.023 206.899 423.416 206.58C432.371 205.935 441.265 204.645 450.138 203.341C453.988 202.778 457.831 202.167 461.565 201.053C465.299 199.94 469.291 198.351 472.502 195.982C474.498 194.508 476.1 192.519 476.725 190.075C477.309 187.767 477.085 185.363 475.937 183.265C474.125 179.939 470.418 178.506 467.132 177.108C451.666 170.522 435.046 165.437 418.046 167.406C409.301 168.417 400.611 169.972 392.192 172.593C385.804 174.575 379.069 176.653 373.359 180.21C370.229 182.166 367.534 184.576 365.375 187.57C364.024 189.437 362.863 191.63 362.897 193.992C362.931 196.219 364.065 198.351 365.755 199.756C369.007 202.465 373.461 203.348 377.528 204.068C381.961 204.848 386.455 205.235 390.95 205.439C393.034 205.534 395.105 205.609 397.182 205.792C399.26 205.975 401.351 203.789 401.256 201.719C401.147 199.356 399.464 197.842 397.182 197.645C393.184 197.299 389.158 197.272 385.159 196.912C384.195 196.823 383.237 196.722 382.273 196.606C382.063 196.579 381.846 196.559 381.635 196.525C382.559 196.667 381.961 196.572 381.764 196.538C381.18 196.45 380.596 196.362 380.013 196.26C378.057 195.927 376.109 195.5 374.201 194.963C373.814 194.855 373.434 194.746 373.054 194.624C372.87 194.563 372.687 194.502 372.504 194.434C372.103 194.284 372.022 194.033 372.707 194.536C372.463 194.359 372.123 194.264 371.852 194.115C371.519 193.931 371.207 193.639 370.867 193.49C371.662 193.843 371.37 193.938 371.091 193.619C370.996 193.51 370.834 193.286 370.718 193.218C370.82 193.273 371.227 194.06 370.983 193.524C370.942 193.442 370.854 193.232 370.786 193.157C371.132 193.585 371.125 193.965 370.99 193.537C370.759 192.804 371.03 194.4 371.044 193.87C371.058 193.388 370.732 194.848 371.03 193.965C371.295 193.178 370.609 194.617 371.064 193.829C371.431 193.198 371.784 192.567 372.198 191.962C372.293 191.827 372.504 191.63 372.551 191.474C372.538 191.528 371.92 192.254 372.354 191.725C372.605 191.419 372.863 191.114 373.128 190.815C373.61 190.285 374.119 189.783 374.649 189.308C374.914 189.07 375.185 188.839 375.464 188.609C375.593 188.507 376.034 188.194 375.518 188.554C374.941 188.962 375.661 188.452 375.776 188.371C376.978 187.495 378.254 186.721 379.571 186.022C380.216 185.676 380.875 185.356 381.54 185.044C381.839 184.908 382.138 184.773 382.436 184.637C382.626 184.555 382.81 184.474 383 184.392C383.366 184.229 382.076 184.773 382.932 184.426C385.648 183.313 388.445 182.39 391.228 181.453C398.744 178.927 406.457 177.155 414.298 176.021C414.726 175.96 415.154 175.892 415.581 175.838C414.624 175.947 415.384 175.865 415.622 175.838C415.894 175.804 416.158 175.77 416.43 175.736C417.394 175.614 418.351 175.499 419.315 175.403C421.291 175.2 423.28 175.098 425.269 175.091C427.143 175.084 429.017 175.152 430.884 175.302C431.814 175.376 432.751 175.465 433.681 175.573C433.885 175.6 434.095 175.628 434.299 175.648C435.324 175.763 433.654 175.553 434.299 175.648C434.815 175.723 435.331 175.797 435.847 175.879C443.485 177.094 450.912 179.382 458.116 182.166C459.005 182.505 459.888 182.858 460.77 183.218C461.212 183.394 461.653 183.578 462.094 183.761C462.339 183.863 462.583 183.965 462.827 184.067C463.547 184.365 462.413 183.89 462.875 184.087C464.382 184.732 465.937 185.329 467.376 186.13C467.661 186.287 467.94 186.456 468.204 186.633C468.347 186.728 468.49 186.857 468.639 186.938C468.585 186.911 467.872 186.266 468.306 186.701C468.503 186.898 468.7 187.088 468.89 187.285C469.406 187.807 468.51 186.585 468.687 187.027C468.754 187.196 468.89 187.414 468.992 187.556C469.264 187.936 468.707 186.538 468.849 187.257C468.863 187.339 468.924 187.631 468.951 187.672C468.904 187.611 468.883 186.585 468.89 187.257C468.89 187.414 468.89 187.577 468.89 187.733C468.938 188.561 469.067 187.006 468.938 187.536C468.883 187.739 468.829 187.95 468.788 188.147C468.727 188.452 468.449 188.656 468.938 187.875C468.809 188.086 468.72 188.323 468.591 188.541C468.51 188.67 468.374 188.826 468.313 188.962C468.598 188.296 468.741 188.466 468.476 188.724C468.327 188.873 468.184 189.029 468.035 189.172C467.437 189.729 468.184 189.131 468.177 189.097C468.225 189.26 466.161 190.367 465.964 190.482C465.197 190.91 464.416 191.311 463.615 191.677C463.438 191.759 463.262 191.833 463.085 191.915C462.203 192.315 463.696 191.684 463.119 191.901C462.617 192.091 462.121 192.295 461.619 192.472C458.251 193.673 454.741 194.427 451.225 194.997C447.273 195.635 443.302 196.178 439.344 196.722C439.323 196.722 438.23 196.871 438.889 196.783C439.547 196.694 438.454 196.844 438.434 196.844C437.992 196.905 437.544 196.959 437.103 197.02C435.996 197.163 434.883 197.299 433.77 197.435C431.774 197.672 429.771 197.889 427.761 198.079C419.533 198.853 411.324 199.132 403.096 198.249C401.127 198.039 399.158 197.815 397.189 197.638C395.064 197.448 393.021 199.648 393.116 201.712C393.224 204.081 394.908 205.582 397.189 205.785L397.182 205.778Z" fill="#104AE0"/>
<path d="M362.897 193.762C363.121 195.907 363.488 198.046 363.915 200.157C364.805 204.536 366.027 208.854 367.575 213.043C369.686 218.753 372.334 224.306 375.824 229.31C379.816 235.033 384.745 240.071 390.726 243.723C397.488 247.851 405.316 249.902 413.198 250.16C418.012 250.316 422.852 249.779 427.571 248.849C432.819 247.817 438.006 246.337 442.962 244.307C451.136 240.96 458.829 236.269 464.756 229.629C469.386 224.449 472.835 218.386 474.966 211.773C476.548 206.858 477.356 201.637 477.472 196.477C477.54 193.565 477.35 190.645 476.888 187.773C476.867 187.651 476.847 187.536 476.827 187.414C476.419 185.316 473.799 183.931 471.816 184.569C469.583 185.295 468.537 187.332 468.972 189.579C468.992 189.702 469.012 189.824 469.033 189.946C469.053 190.089 469.073 190.231 469.094 190.374C469.189 190.998 468.917 189.016 468.992 189.6C469.006 189.715 469.019 189.824 469.033 189.939C469.189 191.229 469.277 192.519 469.311 193.816C469.365 195.717 469.311 197.625 469.162 199.526C469.114 200.089 469.06 200.646 468.999 201.203C468.972 201.467 468.931 201.725 468.904 201.99C468.849 202.438 469.087 200.687 468.978 201.44C468.951 201.623 468.924 201.8 468.897 201.983C468.714 203.212 468.476 204.427 468.204 205.636C467.906 206.933 467.559 208.216 467.152 209.479C466.935 210.151 466.711 210.823 466.46 211.481C466.344 211.787 466.229 212.092 466.107 212.398C466.039 212.561 465.978 212.724 465.91 212.887C465.876 212.968 465.842 213.05 465.808 213.131C465.577 213.708 466.202 212.228 466.039 212.588C464.728 215.412 463.33 218.135 461.531 220.688C461.3 221.013 461.062 221.339 460.825 221.665C460.702 221.828 460.587 221.998 460.458 222.154C460.37 222.256 461.123 221.312 460.859 221.631C460.777 221.733 460.702 221.835 460.621 221.937C460.085 222.616 459.528 223.274 458.951 223.919C457.756 225.25 456.486 226.513 455.149 227.694C454.429 228.325 453.696 228.936 452.942 229.534C452.263 230.07 453.757 228.923 453.058 229.439C452.868 229.581 452.671 229.731 452.481 229.873C452.06 230.179 451.639 230.484 451.211 230.776C449.487 231.964 447.694 233.051 445.848 234.035C444.85 234.572 443.831 235.081 442.799 235.556C442.283 235.794 441.76 236.031 441.238 236.255C441.068 236.33 440.267 236.669 440.925 236.391C441.584 236.113 440.572 236.534 440.396 236.601C438.013 237.559 435.582 238.387 433.118 239.1C430.511 239.86 427.863 240.499 425.195 241.014C424.013 241.239 422.832 241.401 421.644 241.605C421.664 241.605 422.751 241.463 422.099 241.544C421.963 241.558 421.821 241.578 421.685 241.598C421.44 241.626 421.203 241.653 420.958 241.68C420.381 241.741 419.804 241.795 419.227 241.843C417.102 242.012 414.97 242.067 412.838 241.979C411.867 241.938 410.903 241.87 409.933 241.775C409.505 241.734 407.821 241.49 409.437 241.734C408.948 241.659 408.466 241.592 407.984 241.51C406.205 241.205 404.454 240.79 402.729 240.254C401.894 239.996 401.066 239.711 400.244 239.392C399.878 239.249 399.518 239.1 399.151 238.957C400.679 239.562 399.097 238.923 398.71 238.74C397.23 238.048 395.784 237.267 394.399 236.391C393.713 235.957 393.034 235.508 392.376 235.033C392.077 234.823 391.785 234.599 391.493 234.381C390.862 233.913 392.355 235.06 391.744 234.572C391.575 234.436 391.405 234.3 391.235 234.164C388.818 232.202 386.625 229.975 384.656 227.572C384.432 227.3 384.215 227.029 383.998 226.75C383.475 226.092 384.561 227.497 384.208 227.022C384.072 226.839 383.93 226.655 383.787 226.465C383.346 225.875 382.918 225.27 382.504 224.659C381.676 223.437 380.888 222.188 380.148 220.905C379.408 219.622 378.75 218.386 378.112 217.096C377.473 215.806 377.012 214.475 376.346 213.24C376.299 213.158 376.815 214.367 376.611 213.864C376.577 213.79 376.55 213.708 376.516 213.634C376.455 213.477 376.387 213.328 376.326 213.172C376.204 212.866 376.082 212.561 375.959 212.255C375.715 211.638 375.484 211.013 375.253 210.388C374.826 209.214 374.425 208.032 374.052 206.844C373.393 204.746 372.816 202.628 372.314 200.49C371.94 198.894 371.607 197.292 371.329 195.676C371.234 195.133 371.146 194.59 371.064 194.04C371.037 193.836 371.01 193.633 370.976 193.436C370.976 193.436 371.166 194.895 371.091 194.271C371.085 194.203 371.071 194.135 371.064 194.067C371.051 193.952 371.037 193.836 371.024 193.721C370.908 192.614 370.643 191.657 369.829 190.842C369.123 190.136 367.962 189.607 366.95 189.647C364.934 189.736 362.639 191.453 362.877 193.721L362.897 193.762Z" fill="#104AE0"/>
<path d="M415.595 248.157C415.581 250.282 415.574 252.4 415.561 254.525C415.534 259.617 415.507 264.716 415.486 269.808C415.452 275.972 415.425 282.137 415.391 288.301L415.31 304.283C415.296 306.863 415.187 309.457 415.269 312.036C415.269 312.077 415.269 312.111 415.269 312.152L419.342 308.078C415.249 308.214 411.155 308.513 407.074 308.866C399.09 309.558 391.038 310.482 383.237 312.349C379.782 313.177 376.312 314.229 373.142 315.859C370.453 317.237 367.819 319.396 366.991 322.424C365.158 329.118 372.47 332.587 377.582 334.264C385.138 336.736 393.285 337.639 401.175 338.29C410.36 339.051 419.614 339.187 428.813 338.63C433.308 338.358 437.796 337.897 442.243 337.184C445.657 336.634 449.079 335.928 452.345 334.767C455.4 333.681 458.285 332.167 461.001 330.395C463.208 328.955 465.496 327.285 466.881 324.984C468.51 322.275 468.15 319.219 466.181 316.83C464.518 314.806 461.728 313.734 459.324 312.926C455.787 311.738 452.067 311.079 448.387 310.502C442.344 309.552 436.261 308.907 430.171 308.37C426.566 308.051 422.961 307.78 419.356 307.528C417.224 307.379 415.188 309.504 415.283 311.602C415.384 313.937 417.075 315.519 419.356 315.676C426.037 316.137 432.717 316.674 439.371 317.441C440.708 317.597 442.046 317.76 443.383 317.936C443.94 318.011 442.263 317.78 443.057 317.896C443.2 317.916 443.342 317.936 443.485 317.957C443.763 317.997 444.042 318.038 444.32 318.072C444.924 318.16 445.529 318.249 446.126 318.344C448.17 318.663 450.206 319.023 452.223 319.464C453.791 319.81 455.352 320.197 456.88 320.693C457.491 320.89 458.089 321.12 458.686 321.351C457.403 320.856 458.034 321.066 458.55 321.311C458.788 321.426 459.025 321.541 459.256 321.67C459.636 321.881 459.99 322.125 460.349 322.37C458.992 321.46 459.691 321.84 460.023 322.159C460.139 322.268 460.254 322.472 460.383 322.553C460.349 322.533 459.657 321.474 459.908 321.949C459.942 322.01 459.983 322.071 460.023 322.125C460.064 322.186 460.085 322.268 460.132 322.329C460.315 322.58 459.779 321.216 459.827 321.609C459.833 321.677 459.888 321.989 459.928 322.03C459.888 321.989 459.861 320.693 459.806 321.182C459.799 321.256 459.806 321.345 459.806 321.419C459.854 322.064 460.119 320.061 459.888 320.774C459.84 320.924 459.779 321.073 459.745 321.222C460.085 319.837 460.186 320.265 459.922 320.733C459.827 320.903 459.704 321.059 459.603 321.229C459.304 321.725 460.288 320.394 460.037 320.672C459.976 320.74 459.922 320.815 459.861 320.89C459.718 321.059 459.562 321.222 459.406 321.378C459.059 321.725 458.693 322.051 458.313 322.363C458.211 322.444 458.075 322.526 457.987 322.621C458.116 322.478 458.978 321.874 458.428 322.275C458.184 322.458 457.939 322.634 457.688 322.804C457.152 323.178 456.609 323.531 456.052 323.87C454.782 324.651 453.479 325.391 452.148 326.063C451.876 326.199 451.598 326.335 451.313 326.457C451.177 326.518 451.035 326.572 450.899 326.64C452.345 325.975 451.591 326.355 451.231 326.491C450.566 326.756 449.894 326.993 449.208 327.217C447.681 327.713 446.119 328.12 444.544 328.466C442.765 328.86 440.973 329.179 439.174 329.451C438.712 329.519 438.244 329.587 437.775 329.655C437.13 329.743 438.963 329.498 438.02 329.621C437.734 329.655 437.456 329.695 437.171 329.729C436.187 329.851 435.209 329.953 434.224 330.048C425.412 330.911 416.511 330.992 407.672 330.564C403.347 330.354 399.036 330.008 394.738 329.485C394.25 329.424 393.754 329.363 393.265 329.295C392.776 329.227 394.317 329.437 393.835 329.369C393.72 329.356 393.611 329.335 393.496 329.322C393.218 329.281 392.932 329.24 392.654 329.2C391.697 329.064 390.74 328.914 389.789 328.752C388.024 328.453 386.259 328.107 384.514 327.706C382.986 327.353 381.465 326.952 379.965 326.47C379.327 326.267 378.689 326.043 378.064 325.805C377.65 325.649 376.455 325.079 378.023 325.805C377.745 325.676 377.46 325.554 377.175 325.425C376.693 325.194 376.217 324.95 375.763 324.671C375.559 324.549 375.348 324.42 375.151 324.277C375.05 324.21 374.955 324.135 374.853 324.067C374.459 323.802 375.892 324.922 375.314 324.42C375.016 324.155 374.758 323.857 374.466 323.585C374.221 323.354 375.179 324.624 374.907 324.155C374.86 324.074 374.805 324.006 374.758 323.924C374.432 323.395 374.608 323.232 374.907 324.379C374.873 324.237 374.819 324.067 374.765 323.924C374.574 323.415 374.887 324.678 374.866 324.739C374.893 324.664 374.846 324.529 374.846 324.447C374.846 324.352 374.86 324.25 374.853 324.162C374.832 323.571 374.608 325.309 374.758 324.855C374.819 324.658 374.887 324.44 374.934 324.237C374.669 325.343 374.5 325.14 374.832 324.583C374.887 324.495 374.948 324.413 374.995 324.325C375.022 324.277 375.056 324.244 375.084 324.196C375.301 323.829 374.323 325.065 374.642 324.766C375.009 324.42 375.348 324.053 375.722 323.714C376.163 323.32 374.697 324.447 375.308 324.033C375.416 323.958 375.518 323.884 375.627 323.809C375.885 323.639 376.143 323.476 376.407 323.32C376.971 322.987 377.562 322.696 378.159 322.424C378.322 322.349 378.492 322.275 378.655 322.207C379.177 321.976 377.507 322.675 378.254 322.376C378.614 322.234 378.967 322.091 379.334 321.962C380.08 321.691 380.834 321.44 381.594 321.209C385.043 320.156 388.594 319.43 392.145 318.826C393.129 318.656 394.114 318.5 395.098 318.357C395.539 318.289 395.981 318.228 396.415 318.167C396.633 318.133 396.857 318.106 397.074 318.072C398.052 317.936 396.015 318.208 396.979 318.086C398.859 317.841 400.747 317.617 402.641 317.42C407.909 316.87 413.205 316.47 418.501 316.246C418.772 316.232 419.044 316.225 419.322 316.212C421.529 316.137 423.382 314.406 423.396 312.138C423.409 310.013 423.416 307.895 423.43 305.77C423.457 300.678 423.484 295.579 423.504 290.488C423.538 284.323 423.565 278.158 423.599 271.994C423.627 266.664 423.654 261.335 423.681 256.012C423.694 253.432 423.776 250.838 423.722 248.259C423.722 248.218 423.722 248.184 423.722 248.143C423.735 246.011 421.841 243.975 419.648 244.07C417.455 244.165 415.588 245.862 415.574 248.143L415.595 248.157Z" fill="#104AE0"/>
<path d="M171.78 202.567C162.683 203.328 153.517 203.694 144.399 203.029C142.145 202.866 139.891 202.635 137.644 202.363C137.115 202.296 136.578 202.241 136.049 202.16C137.013 202.309 136.259 202.187 136.022 202.16C135.757 202.126 135.492 202.085 135.227 202.051C134.066 201.888 132.905 201.712 131.744 201.522C127.433 200.829 123.142 200.021 118.852 199.2C114.561 198.378 109.985 197.489 105.531 196.735C105.036 196.654 104.567 196.545 104.092 196.389C103.929 196.335 103.759 196.28 103.596 196.219L103.359 196.131C102.951 195.968 103.053 196.016 103.671 196.267C103.42 196.083 103.074 195.982 102.795 195.825C102.653 195.744 102.51 195.656 102.367 195.567C101.6 195.065 102.598 195.764 102.598 195.764C102.558 195.798 102.069 195.248 101.994 195.18C101.512 194.739 102.537 196.09 102.259 195.513C102.218 195.432 102.157 195.337 102.109 195.262C101.838 194.841 102.184 194.76 102.286 195.717C102.279 195.629 102.218 195.54 102.198 195.452C102.171 195.33 102.15 195.167 102.109 195.045C102.483 196.09 102.184 196.036 102.205 195.574C102.225 195.004 102.469 194.617 102.123 195.805C102.191 195.567 102.225 195.316 102.293 195.079C102.429 194.624 102.897 194.067 102.218 195.167C102.388 194.882 102.517 194.563 102.687 194.277C102.836 194.026 102.992 193.782 103.162 193.537C103.23 193.436 103.304 193.341 103.372 193.246C103.793 192.641 102.707 194.053 103.189 193.483C103.623 192.967 104.072 192.458 104.554 191.983C105.036 191.508 105.518 191.059 106.027 190.632C106.285 190.414 106.55 190.211 106.808 189.994C107.208 189.654 105.932 190.638 106.536 190.204C106.767 190.034 106.998 189.858 107.235 189.695C108.878 188.52 110.63 187.502 112.443 186.612C112.877 186.402 113.312 186.198 113.753 186.001C113.807 185.974 114.676 185.574 114.065 185.859C113.454 186.144 114.323 185.757 114.378 185.73C115.362 185.329 116.36 184.969 117.372 184.63C119.252 184.005 121.167 183.483 123.095 183.035C125.023 182.586 127.019 182.213 129.002 181.901C129.518 181.819 130.027 181.745 130.543 181.67C130.74 181.643 131.792 181.466 130.699 181.643C130.903 181.609 131.113 181.588 131.317 181.561C132.45 181.419 133.591 181.297 134.725 181.188C139.022 180.787 143.34 180.652 147.658 180.774C149.79 180.835 151.915 180.957 154.04 181.14C155.079 181.229 156.111 181.337 157.143 181.459C157.218 181.466 158.67 181.697 158.691 181.65C158.664 181.717 157.829 181.527 158.691 181.65C159.051 181.704 159.41 181.751 159.77 181.806C167.374 182.96 174.883 184.915 182.059 187.699C182.439 187.848 182.82 187.997 183.193 188.147C183.404 188.235 183.614 188.317 183.824 188.405C183.913 188.439 184.001 188.48 184.089 188.513C184.877 188.839 183.376 188.208 183.729 188.357C184.755 188.799 185.766 189.247 186.778 189.722C189.059 190.801 191.299 191.996 193.411 193.395C193.9 193.721 194.382 194.06 194.857 194.406C195.624 194.977 194.097 193.775 194.843 194.4C195.074 194.597 195.312 194.787 195.543 194.99C195.943 195.343 196.323 195.71 196.69 196.09C196.846 196.253 196.996 196.423 197.145 196.599C197.24 196.708 197.328 196.83 197.423 196.939C196.547 195.975 196.934 196.28 197.131 196.572C197.383 196.952 197.6 197.339 197.824 197.74C198.123 198.283 197.43 196.654 197.62 197.238C197.647 197.319 197.681 197.394 197.708 197.475C197.79 197.713 197.831 197.95 197.892 198.195C198.007 198.65 197.797 196.857 197.824 197.835C197.824 198.039 197.797 198.242 197.797 198.439C197.797 197.122 197.946 197.563 197.797 198.086C197.776 198.168 197.742 198.249 197.722 198.331C197.491 199.139 198.19 197.455 197.878 197.971C197.756 198.175 197.654 198.385 197.525 198.589C197.471 198.67 197.41 198.752 197.355 198.833C197.009 199.39 198.082 198.025 197.607 198.5C197.518 198.589 196.907 199.24 196.9 199.227C196.867 199.179 197.763 198.67 197.118 199.057C196.901 199.186 196.676 199.308 196.459 199.444C195.712 199.919 197.335 199.152 196.493 199.444C196.33 199.498 196.167 199.56 196.004 199.614C195.583 199.75 195.156 199.851 194.728 199.946C194.3 200.042 193.859 200.103 193.418 200.177C192.481 200.333 194.388 200.062 193.452 200.177C193.139 200.211 192.834 200.252 192.521 200.293C187.844 200.856 183.166 201.42 178.481 201.909C176.261 202.139 174.041 202.35 171.814 202.54C169.587 202.73 167.639 204.285 167.741 206.614C167.836 208.664 169.54 210.877 171.814 210.687C176.716 210.273 181.604 209.737 186.493 209.166C188.903 208.881 191.306 208.603 193.71 208.297C196.113 207.992 198.598 207.612 200.798 206.369C203.758 204.692 206.154 201.23 205.971 197.72C205.815 194.719 204.274 192.146 202.196 190.048C198.469 186.28 193.445 183.747 188.638 181.65C182.317 178.886 175.752 176.734 169.017 175.247C159.94 173.245 150.584 172.328 141.29 172.62C136.456 172.769 131.636 173.265 126.863 174.025C122.64 174.697 118.444 175.621 114.412 177.033C110.379 178.445 106.047 180.441 102.462 183.143C99.7943 185.153 97.1533 187.468 95.5239 190.442C93.6705 193.836 93.5686 197.672 96.1281 200.734C98.9321 204.088 103.556 204.556 107.554 205.283C117.059 207.007 126.503 209.017 136.083 210.273C145.662 211.529 155.16 211.712 164.74 211.176C167.096 211.047 169.452 210.877 171.808 210.68C173.926 210.504 175.983 208.935 175.881 206.607C175.786 204.55 174.082 202.343 171.808 202.533L171.78 202.567Z" fill="#104AE0"/>
<path d="M196.928 202.017C196.887 202.492 196.833 202.968 196.772 203.443C196.758 203.558 196.744 203.681 196.724 203.796C196.622 204.597 196.88 202.649 196.805 203.178C196.765 203.484 196.717 203.789 196.676 204.095C196.568 204.835 196.439 205.582 196.31 206.322C195.536 210.646 194.443 214.924 193.024 219.085C192.589 220.362 192.128 221.624 191.632 222.874C191.51 223.186 191.381 223.498 191.252 223.811C191.116 224.136 190.811 224.822 191.415 223.424C191.34 223.6 191.265 223.777 191.191 223.953C190.906 224.605 190.614 225.257 190.315 225.895C189.066 228.556 187.647 231.143 186.024 233.607C185.61 234.239 185.182 234.857 184.741 235.474C184.524 235.773 184.306 236.072 184.089 236.364C183.981 236.506 183.505 237.124 184.028 236.445C184.551 235.766 184.042 236.425 183.92 236.581C182.962 237.783 181.951 238.944 180.878 240.044C179.805 241.143 178.644 242.223 177.443 243.221C177.157 243.459 176.866 243.744 176.546 243.941C176.492 243.975 177.477 243.235 177.028 243.567C176.954 243.622 176.872 243.683 176.798 243.744C176.621 243.873 176.451 244.002 176.275 244.131C175.623 244.599 174.965 245.054 174.286 245.482C172.901 246.358 171.455 247.145 169.968 247.838C169.601 248.007 169.234 248.204 168.854 248.333C168.807 248.354 169.941 247.885 169.404 248.102C169.309 248.143 169.214 248.177 169.119 248.218C168.902 248.306 168.685 248.388 168.467 248.469C167.659 248.775 166.838 249.06 166.003 249.311C164.265 249.84 162.493 250.248 160.707 250.54C160.483 250.574 160.259 250.614 160.028 250.648C159.098 250.784 160.789 250.553 160.252 250.621C159.757 250.682 159.261 250.737 158.765 250.784C157.774 250.879 156.776 250.94 155.785 250.967C153.66 251.029 151.528 250.954 149.41 250.764C148.867 250.716 148.324 250.655 147.781 250.594C147.502 250.56 147.231 250.519 146.952 250.492C146.973 250.492 148.066 250.648 147.407 250.553C147.231 250.526 147.054 250.506 146.884 250.479C145.696 250.302 144.508 250.092 143.334 249.847C140.652 249.297 137.984 248.625 135.363 247.831C134.141 247.457 132.926 247.05 131.717 246.616C131.154 246.412 130.597 246.201 130.04 245.984C129.769 245.876 129.497 245.767 129.219 245.658C128.906 245.529 127.881 245.054 129.09 245.611C125.132 243.791 121.316 241.836 117.793 239.249C117.602 239.107 117.406 238.964 117.215 238.822C117.134 238.76 116.991 238.679 116.93 238.604C116.917 238.591 117.806 239.29 117.338 238.917C116.951 238.604 116.564 238.299 116.183 237.98C115.464 237.375 114.765 236.758 114.086 236.113C112.796 234.891 111.574 233.587 110.433 232.216C110.168 231.897 109.91 231.571 109.652 231.245C109.272 230.763 110.352 232.168 109.822 231.455C109.686 231.272 109.55 231.089 109.415 230.905C108.926 230.24 108.464 229.554 108.016 228.862C107.154 227.524 106.373 226.146 105.667 224.727C105.328 224.041 105.002 223.349 104.696 222.65C104.35 221.855 104.913 223.179 104.839 222.996C104.778 222.847 104.717 222.704 104.655 222.555C104.506 222.181 104.357 221.801 104.214 221.428C103.712 220.083 103.277 218.719 102.897 217.34C102.544 216.037 102.238 214.713 101.994 213.382C101.879 212.751 101.77 212.113 101.675 211.475C101.655 211.325 101.634 211.169 101.607 211.02C101.573 210.823 101.77 212.31 101.682 211.597C101.641 211.264 101.6 210.931 101.566 210.599C101.329 208.406 101.22 206.193 101.254 203.986C101.274 202.33 101.369 200.673 101.553 199.023C101.587 198.718 101.627 198.412 101.661 198.107C101.729 197.55 101.464 199.505 101.573 198.772C101.593 198.643 101.614 198.507 101.634 198.378C101.689 198.032 101.743 197.679 101.811 197.333C101.831 197.217 101.851 197.102 101.879 196.986C102.333 194.909 101.254 192.478 99.0339 191.976C96.9768 191.508 94.5123 192.594 94.0235 194.821C93.5347 197.048 93.3378 199.22 93.2088 201.413C92.9168 206.22 93.2835 211.06 94.1864 215.786C95.3745 221.991 97.744 228.074 101.227 233.356C105.735 240.2 111.94 245.747 119.076 249.752C128.282 254.919 138.921 257.981 149.417 258.924C157.767 259.678 166.159 258.483 173.81 255.007C179.968 252.21 185.393 247.729 189.602 242.461C193.75 237.274 196.873 231.557 199.351 225.406C201.205 220.81 202.617 216.037 203.642 211.189C204.253 208.29 204.742 205.358 205.041 202.411C205.054 202.289 205.068 202.167 205.075 202.044C205.244 199.913 203.079 197.876 201.001 197.971C198.645 198.079 197.111 199.763 196.928 202.044V202.017Z" fill="#104AE0"/>
<path d="M146.131 255.924C146.124 258.32 146.117 260.724 146.104 263.12L146.043 280.406C146.022 287.378 145.995 294.344 145.975 301.316C145.954 307.318 145.934 313.32 145.914 319.321C145.907 322.254 145.818 325.194 145.886 328.12C145.886 328.161 145.886 328.202 145.886 328.242C145.88 330.306 147.76 332.506 149.96 332.316C153.809 331.983 157.672 331.8 161.529 331.664C168.922 331.406 176.377 331.365 183.743 332.16C184.144 332.2 184.551 332.248 184.952 332.302C185.135 332.323 186.058 332.445 185.148 332.323C184.239 332.2 185.21 332.336 185.406 332.363C186.221 332.486 187.029 332.621 187.83 332.778C189.249 333.056 190.668 333.402 192.033 333.891C192.304 333.986 192.576 334.101 192.847 334.203C193.262 334.359 191.693 333.681 192.352 334C192.501 334.074 192.657 334.142 192.807 334.217C193.295 334.461 193.73 334.753 194.185 335.045C194.64 335.337 193.234 334.23 193.723 334.692C193.798 334.767 193.886 334.835 193.968 334.909C194.083 335.018 194.3 335.364 194.436 335.412C194.341 335.378 193.703 334.332 194.015 334.882C194.063 334.964 194.117 335.045 194.164 335.127C194.219 335.222 194.253 335.317 194.307 335.412C194.239 335.296 193.893 334.163 194.042 334.828C194.063 334.916 194.083 335.011 194.11 335.099C194.314 335.744 194.029 333.925 194.022 334.4C194.022 334.597 194.022 334.801 194.022 334.998C194.008 334.726 194.321 333.66 194.076 334.4C194.056 334.468 194.022 334.543 194.008 334.617C193.906 335.106 194.558 333.538 194.28 333.966C194.192 334.108 194.103 334.264 194.022 334.414C193.832 334.746 193.357 335.018 194.45 333.871C194.382 333.945 194.327 334.027 194.26 334.101C193.968 334.421 193.642 334.685 193.323 334.977C193.037 335.235 194.361 334.224 193.825 334.583C193.723 334.651 193.621 334.733 193.52 334.801C193.302 334.95 193.078 335.093 192.847 335.228C192.359 335.52 191.849 335.785 191.34 336.036C191.082 336.159 190.824 336.274 190.566 336.396C190.498 336.423 190.43 336.451 190.363 336.484C189.847 336.715 191.394 336.064 190.974 336.226C190.817 336.288 190.654 336.355 190.498 336.423C189.819 336.695 189.134 336.939 188.441 337.177C185.209 338.263 181.876 339.03 178.536 339.669C176.601 340.042 174.659 340.361 172.711 340.646C172.208 340.721 171.706 340.789 171.203 340.857C170.701 340.925 172.378 340.701 171.658 340.796C171.536 340.809 171.421 340.83 171.298 340.843C171 340.884 170.694 340.918 170.395 340.959C169.357 341.088 168.311 341.21 167.266 341.318C158.406 342.255 149.457 342.615 140.557 342.289C138.439 342.215 136.327 342.099 134.216 341.923C133.211 341.841 132.199 341.746 131.201 341.637C130.753 341.59 130.305 341.542 129.864 341.488C129.647 341.461 129.423 341.434 129.205 341.407C129.069 341.386 128.934 341.373 128.798 341.352C128.316 341.291 129.938 341.508 129.314 341.42C125.96 340.938 122.606 340.341 119.381 339.295C118.729 339.085 118.085 338.854 117.446 338.596C116.659 338.277 117.901 338.793 117.84 338.766C117.691 338.698 117.535 338.63 117.385 338.562C117.093 338.426 116.808 338.29 116.523 338.141C115.213 337.462 113.916 336.756 112.64 336.03C111.621 335.453 110.616 334.855 109.646 334.19C109.455 334.061 109.265 333.925 109.075 333.789C108.994 333.728 108.912 333.667 108.831 333.606C108.6 333.443 109.849 334.421 109.313 333.972C109.041 333.742 108.763 333.518 108.518 333.26C108.417 333.151 108.322 333.029 108.22 332.927C108.912 333.619 108.926 333.85 108.58 333.355C108.199 332.805 108.79 333.85 108.838 334.006C108.824 333.959 108.804 333.918 108.79 333.871C108.661 333.314 108.905 334.835 108.899 334.753C108.851 334.203 109.028 334.556 108.763 335.527C108.946 334.862 108.383 336.349 108.464 336.193C108.77 335.575 107.677 337.007 108.023 336.736C108.111 336.668 108.22 336.566 108.294 336.484C107.412 337.489 107.364 337.136 107.826 336.878C107.982 336.79 108.138 336.715 108.288 336.634C108.939 336.294 107.072 337.095 107.874 336.81C108.077 336.736 108.288 336.661 108.491 336.6C109.55 336.267 110.65 336.036 111.743 335.839C112.436 335.717 113.128 335.602 113.821 335.5C113.997 335.473 114.181 335.446 114.357 335.425C114.473 335.412 114.588 335.391 114.703 335.378C115.158 335.317 113.583 335.527 114.045 335.466C114.507 335.405 114.934 335.351 115.382 335.296C117.419 335.052 119.463 334.848 121.506 334.658C127.073 334.149 132.654 333.748 138.228 333.355C141.731 333.11 145.241 332.866 148.745 332.621C150.863 332.472 152.92 330.849 152.818 328.548C152.723 326.464 151.019 324.318 148.745 324.474C137.352 325.262 125.885 325.805 114.554 327.251C110.128 327.815 100.663 328.31 100.745 334.706C100.779 337.516 102.972 339.397 105.063 340.904C107.154 342.411 109.564 343.674 111.886 344.91C118.478 348.406 126.198 349.384 133.53 350.022C142.573 350.803 151.698 350.694 160.748 350.049C169.798 349.404 178.149 348.406 186.561 346.234C189.738 345.412 192.908 344.387 195.841 342.907C198.007 341.814 200.288 340.225 201.388 337.985C202.895 334.909 202.128 331.27 199.555 329.003C197.152 326.885 193.995 325.825 190.912 325.14C183.309 323.456 175.311 323.334 167.551 323.408C161.977 323.463 156.396 323.7 150.836 324.128C150.544 324.148 150.252 324.176 149.96 324.196L154.033 328.27C154.04 325.873 154.047 323.47 154.061 321.073L154.122 303.788C154.142 296.815 154.169 289.849 154.19 282.877C154.21 276.875 154.23 270.873 154.251 264.872C154.257 261.939 154.346 258.999 154.278 256.073C154.278 256.032 154.278 255.991 154.278 255.951C154.285 253.819 152.397 251.782 150.204 251.877C148.011 251.972 146.138 253.67 146.131 255.951V255.924Z" fill="#104AE0"/>
<path d="M275.506 72.7777C276.416 82.6152 277.285 92.575 276.11 102.426C275.907 104.123 275.418 106.785 274.888 108.917C274.359 111.048 273.558 113.588 272.763 115.502C271.1 119.508 268.411 123.595 265.723 127.22C264.324 129.108 263.326 130.357 261.826 132.272C260.325 134.186 258.723 136.243 257.243 138.287C254.29 142.354 251.819 146.624 249.945 151.295C246.136 160.793 245.301 171.235 244.622 181.351C243.142 203.429 243.278 225.562 243.278 247.675C243.278 269.753 243.128 291.866 241.092 313.87C240.603 319.158 239.985 324.515 239.265 329.688C238.525 335.011 238.464 340.843 243.61 344.048C247.84 346.675 253.509 346.057 258.255 346.03C263.89 345.996 269.525 345.867 275.153 345.657C286.233 345.236 297.306 344.482 308.339 343.382C311.095 343.111 313.852 342.812 316.608 342.493C319.364 342.174 322.623 342.221 325.115 340.802C327.858 339.241 328.727 336.444 329.114 333.518C329.501 330.591 329.813 327.916 330.146 325.119C332.753 303.081 334.654 280.955 335.842 258.795C337.044 236.452 337.526 214.075 337.288 191.704C337.078 171.758 337.668 149.333 324.877 132.679C321.931 128.843 318.502 125.652 314.463 122.984C312.657 121.796 310.83 120.642 309.086 119.365C308.991 119.297 308.481 118.883 308.991 119.297C308.841 119.175 308.692 119.06 308.549 118.938C308.162 118.612 307.782 118.279 307.415 117.933C307.096 117.627 306.784 117.315 306.492 116.996C306.322 116.813 306.159 116.616 305.997 116.432C305.521 115.889 306.064 116.561 305.82 116.202C304.591 114.396 303.912 113.011 303.749 111.279C303.512 108.733 303.871 106.167 304.048 103.635C304.421 98.0675 304.381 92.4868 304.374 86.9128C304.367 81.4271 304.394 75.9347 304.849 70.4626C304.992 68.6974 303.478 66.9865 301.862 66.5316C298.067 65.4725 294.224 65.6558 290.368 66.1989C288.596 66.4501 286.837 66.7828 285.086 67.1087C284.291 67.258 283.497 67.4074 282.703 67.5432C282.234 67.6247 281.759 67.6993 281.291 67.774C280.584 67.8827 281.263 67.7876 280.51 67.8691C278.398 68.1067 276.328 69.5732 276.436 71.9426C276.525 73.9454 278.242 76.2741 280.51 76.0161C284.074 75.6156 287.564 74.8416 291.094 74.2645C292.316 74.0676 293.722 73.8979 295.263 73.8707C297.13 73.83 298.08 73.9318 299.696 74.3799L296.709 70.449C295.806 81.4 296.641 92.3917 295.928 103.35C295.765 105.902 295.405 108.469 295.595 111.028C295.799 113.744 296.492 116.242 297.768 118.646C299.845 122.543 303.322 125.333 306.92 127.757C308.705 128.958 310.545 130.072 312.283 131.341C312.847 131.756 311.917 131.043 312.46 131.477C312.623 131.606 312.786 131.742 312.949 131.878C313.383 132.238 313.804 132.604 314.218 132.984C315.047 133.738 315.834 134.539 316.594 135.367C318.061 136.983 318.794 137.941 320.057 139.903C321.211 141.688 322.23 143.562 323.133 145.483C323.676 146.644 323.771 146.882 324.144 147.846C324.551 148.905 324.932 149.978 325.278 151.057C326.045 153.468 326.649 155.925 327.138 158.41C328.109 163.38 328.516 168.336 328.761 173.503C329.256 184.297 329.256 195.133 329.222 205.941C329.188 216.858 328.985 227.775 328.611 238.686C327.858 260.506 326.418 282.306 324.3 304.039C323.771 309.47 323.194 314.902 322.583 320.326C322.27 323.083 321.944 325.839 321.612 328.589C321.462 329.831 321.306 331.073 321.15 332.316C321.136 332.418 320.974 333.504 321.069 332.981C321.15 332.52 320.987 333.361 320.967 333.456C320.919 333.653 320.878 333.857 320.811 334.054C321.001 333.477 320.587 334.217 320.79 334.061C321.177 333.769 321.428 333.687 320.892 333.789C320.627 333.843 320.363 333.898 320.091 333.952C320.804 333.816 319.942 333.972 319.833 333.979C318.414 334.149 316.988 334.319 315.569 334.482C312.901 334.78 310.233 335.065 307.565 335.323C302.133 335.853 296.695 336.308 291.257 336.675C280.279 337.415 269.287 337.822 258.282 337.897C255.838 337.91 253.367 337.998 250.922 337.849C250.658 337.835 250.386 337.808 250.121 337.788C250.087 337.788 249.442 337.686 249.87 337.761C250.339 337.842 249.537 337.679 249.436 337.659C249.245 337.618 249.055 337.571 248.865 337.516C248.621 337.449 248.37 337.374 248.132 337.279C248.791 337.537 248.18 337.252 248.071 337.218C247.969 337.184 247.399 336.79 247.962 337.218C247.765 337.068 247.582 336.878 247.412 336.695C247.867 337.177 247.005 335.772 247.236 336.41C247.141 336.152 247.086 335.887 247.019 335.622C247.019 335.602 246.924 334.95 246.964 335.344C247.012 335.799 246.964 334.93 246.957 334.835C246.957 334.624 246.957 334.407 246.957 334.196C246.971 333.551 247.025 332.9 247.1 332.262C247.107 332.173 247.222 331.297 247.161 331.739C247.1 332.18 247.222 331.304 247.222 331.331C247.324 330.632 247.419 329.926 247.514 329.22C247.731 327.631 247.935 326.036 248.132 324.44C250.766 302.959 251.316 281.288 251.425 259.671C251.54 237.993 251.208 216.309 252.09 194.644C252.497 184.569 252.823 174.059 254.677 164.493C255.566 159.877 256.924 155.117 258.886 151.146C260.848 147.174 263.564 143.318 266.327 139.692C266.68 139.224 267.427 138.273 268.038 137.492C268.839 136.467 269.64 135.449 270.435 134.417C271.867 132.564 273.286 130.696 274.624 128.768C277.387 124.783 279.648 120.533 281.297 115.964C284.61 106.764 285.133 96.7165 284.746 87.0282C284.556 82.2622 284.135 77.5098 283.694 72.7641C283.497 70.6459 281.963 68.5887 279.62 68.6906C277.584 68.7788 275.336 70.4897 275.547 72.7641L275.506 72.7777Z" fill="#104AE0"/>
<path d="M246.774 201.318C250.99 206.634 257.942 209.682 264.684 209.601C268.235 209.56 271.704 208.65 274.827 206.973C278.208 205.154 281.073 202.486 283.959 199.987C284.61 199.424 285.269 198.86 285.948 198.317C286.138 198.168 286.654 197.699 285.934 198.317C286.084 198.188 286.253 198.073 286.41 197.964C286.81 197.672 287.217 197.387 287.625 197.115C288.365 196.627 289.132 196.172 289.92 195.764C290.137 195.656 290.354 195.547 290.578 195.445L290.714 195.384C291.128 195.201 291.067 195.228 290.544 195.452C290.836 195.194 291.522 195.092 291.902 194.984C292.309 194.861 292.73 194.76 293.144 194.685C293.307 194.651 293.918 194.603 293.301 194.644C292.588 194.692 293.518 194.644 293.599 194.631C293.973 194.61 294.353 194.603 294.733 194.624C294.849 194.624 295.711 194.569 295.045 194.624C294.455 194.678 295.208 194.664 295.412 194.705C295.779 194.787 296.145 194.889 296.505 195.004C296.661 195.058 296.817 195.119 296.98 195.174C297.795 195.445 296.308 194.848 296.817 195.099C297.537 195.459 298.243 195.825 298.922 196.26C299.126 196.389 300.871 197.428 300.83 197.604C300.85 197.502 300.097 197.027 300.728 197.53C300.898 197.665 301.074 197.801 301.244 197.944C301.59 198.222 301.93 198.5 302.269 198.779C303.729 199.974 305.189 201.175 306.737 202.248C309.276 204.006 312.283 205.256 315.332 205.785C318.95 206.41 322.739 206.376 326.235 205.167C330.024 203.857 333.092 201.556 335.414 198.297C336.657 196.559 335.781 193.687 333.954 192.723C331.857 191.616 329.704 192.329 328.381 194.182C328.313 194.278 327.865 194.909 328.292 194.318C328.672 193.802 328.367 194.216 328.258 194.345C328.034 194.59 327.817 194.841 327.579 195.079C327.376 195.289 327.158 195.486 326.941 195.683C326.833 195.778 326.717 195.873 326.609 195.968C326.018 196.484 327.349 195.452 326.744 195.859C326.201 196.226 325.665 196.572 325.088 196.878C324.837 197.007 324.551 197.102 324.307 197.251C325.101 196.756 324.993 196.98 324.68 197.095C324.477 197.17 324.273 197.251 324.069 197.319C323.452 197.53 322.82 197.706 322.182 197.842C321.897 197.903 321.605 197.95 321.32 198.005C320.661 198.127 321.707 197.95 321.747 197.95C321.53 197.95 321.306 197.998 321.089 198.018C320.424 198.073 319.758 198.086 319.093 198.066C318.794 198.059 318.495 198.039 318.203 198.018C318.054 198.005 317.905 197.991 317.755 197.978C317.606 197.964 317.457 197.944 317.307 197.93L317.945 198.012C316.642 197.638 315.318 197.482 314.028 197C313.899 196.952 313.743 196.871 313.607 196.837C314.578 197.075 314.191 197.095 313.858 196.939C313.553 196.796 313.247 196.654 312.949 196.498C312.338 196.178 311.754 195.832 311.183 195.445C310.858 195.228 310.538 195.004 310.226 194.773C310.084 194.671 309.948 194.563 309.805 194.461C309.33 194.115 310.6 195.092 309.9 194.535C309.276 194.04 308.658 193.537 308.047 193.035C306.628 191.874 305.202 190.706 303.695 189.668C300.694 187.611 297.035 186.205 293.341 186.511C289.288 186.85 285.561 188.547 282.309 190.937C280.7 192.119 279.172 193.402 277.672 194.712C276.375 195.846 274.949 196.885 273.7 198.066C274.447 197.36 273.625 198.107 273.381 198.29C273.035 198.541 272.682 198.779 272.322 199.01C271.568 199.498 270.788 199.953 269.973 200.34C269.871 200.388 269.633 200.462 269.538 200.544C270.034 200.13 270.238 200.266 269.851 200.408C269.518 200.53 269.185 200.659 268.846 200.768C268.133 200.999 267.407 201.182 266.667 201.318C266.51 201.345 266.354 201.372 266.198 201.399C265.343 201.556 267.21 201.304 266.347 201.372C265.954 201.406 265.567 201.44 265.166 201.454C264.379 201.481 263.591 201.461 262.803 201.393C262.647 201.379 262.491 201.359 262.335 201.345C261.5 201.27 263.245 201.494 262.478 201.359C262.091 201.291 261.697 201.216 261.31 201.128C260.536 200.951 259.775 200.727 259.029 200.456C258.845 200.388 258.655 200.313 258.472 200.245C257.997 200.069 259.327 200.639 258.676 200.333C258.316 200.164 257.956 199.994 257.603 199.811C256.863 199.424 256.15 198.982 255.464 198.5C255.335 198.405 255.206 198.31 255.077 198.215C254.758 197.984 255.851 198.84 255.152 198.256C254.847 197.998 254.548 197.733 254.256 197.455C253.638 196.864 253.075 196.233 252.545 195.567C251.941 194.807 250.59 194.373 249.666 194.373C248.668 194.373 247.473 194.814 246.788 195.567C246.102 196.321 245.545 197.36 245.593 198.446C245.647 199.593 246.075 200.435 246.788 201.325L246.774 201.318Z" fill="#104AE0"/>
<path d="M246.163 285.273C250.44 290.27 256.978 292.742 263.401 293.278C270.509 293.875 277.611 291.703 283.938 288.641C285.33 287.969 286.695 287.249 288.073 286.55C288.725 286.224 289.377 285.898 290.035 285.592C290.381 285.43 290.734 285.267 291.087 285.11C291.223 285.049 291.8 284.798 291.264 285.029C290.666 285.287 291.529 284.927 291.576 284.907C292.995 284.35 294.434 283.956 295.921 283.651C296.709 283.488 295.684 283.664 295.67 283.678C295.718 283.63 296.213 283.624 296.234 283.624C296.607 283.59 296.987 283.576 297.367 283.569C297.7 283.569 298.033 283.576 298.365 283.596C298.556 283.61 298.739 283.63 298.929 283.644C299.452 283.678 298.053 283.481 298.807 283.63C299.56 283.78 300.239 283.936 300.939 284.153C301.285 284.262 301.631 284.384 301.977 284.513C302.106 284.561 302.235 284.615 302.364 284.662C302.846 284.832 301.59 284.309 302.283 284.622C303.641 285.233 304.951 285.932 306.254 286.658C308.963 288.172 311.659 289.788 314.626 290.752C320.756 292.742 328.734 292.117 332.366 286.088C333.466 284.262 332.834 281.533 330.906 280.514C328.978 279.496 326.507 280.025 325.332 281.974C325.264 282.089 325.183 282.205 325.115 282.327C324.945 282.626 324.701 282.605 325.387 281.994C325.217 282.144 325.074 282.354 324.911 282.51C324.748 282.666 324.551 282.809 324.389 282.972C325.203 282.137 324.708 282.721 324.307 282.951C324.11 283.067 323.866 283.148 323.682 283.277C324.402 282.782 324.436 282.985 324.09 283.101C323.961 283.142 323.832 283.196 323.703 283.237C323.166 283.413 322.589 283.447 322.06 283.624C322.101 283.61 323.16 283.515 322.501 283.563C322.392 283.569 322.284 283.583 322.175 283.59C321.917 283.61 321.659 283.624 321.401 283.63C320.763 283.644 320.125 283.617 319.487 283.549C318.584 283.461 320.261 283.692 319.555 283.563C319.256 283.508 318.95 283.461 318.652 283.393C318.054 283.264 317.47 283.108 316.893 282.924C316.642 282.843 316.398 282.761 316.146 282.666C316.045 282.626 315.936 282.585 315.834 282.551C315.216 282.334 316.153 282.687 316.194 282.714C315.583 282.374 314.918 282.116 314.293 281.797C313.003 281.132 311.747 280.399 310.477 279.693C307.775 278.179 304.937 276.685 301.909 275.965C298.569 275.171 295.127 275.307 291.827 276.23C288.718 277.099 285.785 278.579 282.92 280.039C281.576 280.725 280.238 281.417 278.867 282.049C278.541 282.198 278.208 282.34 277.882 282.49C277.692 282.571 277.217 282.85 277.998 282.442C277.821 282.537 277.604 282.605 277.421 282.673C276.653 282.979 275.873 283.264 275.092 283.522C273.619 284.011 272.118 284.418 270.604 284.723C270.197 284.805 269.796 284.88 269.382 284.948C269.233 284.975 269.077 284.995 268.921 285.022C268.337 285.124 269.674 284.941 269.084 285.002C268.262 285.083 267.441 285.165 266.612 285.199C265.784 285.233 264.908 285.226 264.06 285.178C263.659 285.158 263.252 285.124 262.851 285.083C262.722 285.07 262.579 285.043 262.45 285.036C263.571 285.063 262.763 285.077 262.464 285.029C260.964 284.778 259.477 284.391 258.051 283.861C257.881 283.8 257.718 283.732 257.555 283.671C256.856 283.4 258.126 283.943 257.671 283.719C257.352 283.563 257.033 283.42 256.714 283.264C256.048 282.924 255.403 282.551 254.779 282.137C254.636 282.042 254.487 281.94 254.344 281.845C254.283 281.804 253.597 281.281 254.127 281.695C254.602 282.076 254.147 281.709 254.032 281.607C253.862 281.471 253.699 281.329 253.536 281.186C252.952 280.67 252.416 280.107 251.907 279.516C250.515 277.894 247.555 277.982 246.143 279.516C244.554 281.247 244.656 283.542 246.143 285.28L246.163 285.273Z" fill="#104AE0"/>
<path d="M245.308 227.137C250.162 232.514 256.557 236.9 263.951 237.457C270.217 237.925 275.859 234.714 280.985 231.53C282.173 230.79 283.354 230.05 284.563 229.351C285.771 228.651 286.973 228.129 288.168 227.497C287.041 228.095 287.971 227.585 288.311 227.456C288.616 227.341 288.922 227.239 289.227 227.137C289.838 226.947 290.456 226.784 291.087 226.669C292.126 226.479 290.368 226.716 291.053 226.662C291.373 226.635 291.692 226.608 292.011 226.601C292.33 226.594 292.656 226.594 292.975 226.608C293.117 226.615 293.267 226.621 293.409 226.635C293.864 226.676 294.136 226.913 293.199 226.594C293.891 226.825 294.645 226.9 295.344 227.144C295.514 227.205 295.684 227.273 295.853 227.334C296.41 227.538 294.944 226.879 295.752 227.3C296.152 227.511 296.566 227.701 296.96 227.925C298.372 228.712 299.696 229.643 301.02 230.559C303.967 232.603 307.008 234.314 310.443 235.4C318.21 237.851 326.833 237.016 334.036 233.282C335.93 232.297 336.65 229.493 335.496 227.708C334.253 225.773 331.952 225.196 329.922 226.248C329.562 226.438 329.195 226.615 328.822 226.791C328.659 226.866 328.489 226.94 328.326 227.015C327.824 227.246 329.066 226.73 328.55 226.92C327.783 227.205 327.023 227.49 326.242 227.714C325.502 227.932 324.755 228.115 324.002 228.264C323.648 228.339 323.289 228.393 322.936 228.454C322.223 228.583 323.119 228.434 323.214 228.427C322.942 228.448 322.671 228.495 322.406 228.522C320.831 228.678 319.235 228.692 317.654 228.577C317.294 228.549 316.934 228.509 316.574 228.475C315.97 228.421 317.626 228.651 316.717 228.495C316.54 228.468 316.357 228.441 316.18 228.407C315.379 228.271 314.578 228.095 313.791 227.884C313.091 227.701 312.399 227.484 311.72 227.239C311.537 227.171 310.79 227.015 310.701 226.852L311.17 227.056C311.048 227.002 310.919 226.947 310.796 226.893C310.593 226.798 310.382 226.703 310.179 226.608C308.733 225.915 307.375 225.06 306.051 224.157C303.172 222.195 300.368 220.151 296.994 219.112C290.965 217.259 285.018 219.588 279.851 222.65C277.502 224.041 275.235 225.562 272.845 226.886C272.302 227.185 271.758 227.47 271.202 227.742C270.93 227.877 270.652 228.006 270.373 228.135C270.265 228.183 269.552 228.495 270.231 228.203C270.91 227.911 270.231 228.203 270.088 228.258C268.853 228.74 267.603 229.045 266.307 229.31C265.798 229.412 267.244 229.215 266.721 229.256C266.463 229.276 266.198 229.31 265.94 229.323C265.54 229.344 265.139 229.357 264.738 229.344C264.548 229.344 263.557 229.154 263.421 229.256C263.591 229.12 264.304 229.405 263.72 229.296C263.462 229.249 263.204 229.208 262.946 229.154C262.084 228.97 261.235 228.719 260.407 228.414C260.258 228.359 260.061 228.251 259.911 228.224L260.393 228.427C260.23 228.359 260.067 228.285 259.905 228.21C259.538 228.04 259.178 227.864 258.818 227.674C258.058 227.273 257.318 226.825 256.605 226.35C256.225 226.099 255.858 225.827 255.485 225.562C254.908 225.155 255.58 225.63 255.654 225.698C255.458 225.515 255.22 225.352 255.01 225.182C253.597 224.021 252.294 222.738 251.065 221.38C249.632 219.791 246.74 219.812 245.301 221.38C243.746 223.077 243.773 225.447 245.301 227.144L245.308 227.137Z" fill="#104AE0"/>
<g style="mix-blend-mode:multiply">
<path d="M460.302 216.539C460.668 216.261 461.035 215.976 461.402 215.698C461.395 215.698 461.388 215.704 461.375 215.711L462.671 215.161C461.836 215.494 460.899 215.65 460.023 215.86C458.17 216.315 456.317 216.743 454.456 217.164C450.362 218.081 446.248 219.004 442.086 219.561L443.532 219.364C428.97 221.271 414.122 220.878 399.538 219.459C395.322 219.051 391.12 218.549 386.924 217.985L388.37 218.182C385.709 217.823 383.047 217.436 380.393 217.035C379.137 216.845 378.064 216.797 376.856 217.307C375.81 217.748 374.805 218.501 374.255 219.527C373.807 220.382 373.556 221.305 373.515 222.269C373.461 223.498 374.133 225.304 375.104 226.112C379.924 230.118 385.132 233.655 390.624 236.676C396.409 239.854 402.56 242.576 408.921 244.348C414.896 246.018 421.04 246.69 427.204 245.91C434.333 245.007 441.068 243.065 447.558 239.955C454.314 236.724 460.539 232.155 465.672 226.703C467.539 224.72 467.77 221.74 466.1 219.574C464.43 217.408 461.436 216.77 459.093 218.176C456.432 219.771 453.56 221.068 450.709 222.276L452.005 221.726C444.89 224.727 437.402 226.906 429.744 227.938L431.19 227.742C425.602 228.475 419.947 228.57 414.359 227.83L415.805 228.027C411.257 227.402 406.816 226.221 402.58 224.442L403.877 224.992C403.7 224.917 403.524 224.843 403.354 224.768C401.962 224.164 400.699 223.797 399.172 224.218C397.909 224.564 396.544 225.542 395.926 226.716C395.261 227.979 394.928 229.507 395.377 230.899C395.784 232.148 396.605 233.594 397.875 234.144C401.046 235.522 404.264 236.71 407.631 237.518C410.999 238.326 414.115 238.754 417.387 239.018C423.294 239.494 429.207 239.018 435.039 238.048C443.763 236.601 452.229 233.675 460.186 229.853C461.68 229.133 463.174 228.393 464.593 227.545L458.014 219.017C455.95 221.21 453.723 223.227 451.34 225.067L452.44 224.218C448.455 227.273 444.103 229.792 439.479 231.747L440.776 231.197C436.146 233.125 431.292 234.47 426.322 235.162L427.768 234.965C424.217 235.441 420.721 235.556 417.163 235.094L418.609 235.291C413.361 234.572 408.276 232.942 403.401 230.899L404.698 231.448C397.284 228.319 390.237 224.211 383.862 219.303L384.962 220.151C384.235 219.588 383.516 219.011 382.803 218.427L377.521 227.504C392.07 229.71 406.742 231.435 421.474 231.489C428.705 231.516 435.949 231.163 443.125 230.274C447.647 229.717 452.114 228.794 456.561 227.809C458.713 227.334 460.865 226.839 463.004 226.309C464.857 225.854 466.48 225.488 468.008 224.211C469.019 223.363 469.596 221.638 469.596 220.368C469.596 219.038 469.006 217.442 468.008 216.526C467.01 215.609 465.611 214.869 464.165 214.937C462.719 215.005 461.483 215.562 460.322 216.526L460.302 216.539Z" fill="#E54D1F"/>
</g>
<g style="mix-blend-mode:multiply">
<path d="M135.064 242.848C133.381 242.569 131.744 242.114 130.169 241.456L131.466 242.006C129.653 241.218 127.976 240.186 126.415 238.978L127.515 239.826C124.174 237.213 121.398 233.981 118.438 230.966C117.08 229.588 115.701 228.258 114.181 227.063C112.83 226.004 111.397 224.965 110.304 223.62L111.153 224.72C110.935 224.442 110.745 224.15 110.596 223.831L111.146 225.128C111.085 224.972 111.037 224.815 111.01 224.646L111.207 226.092C111.193 225.976 111.193 225.868 111.207 225.752L111.01 227.198C111.03 227.083 111.058 226.981 111.105 226.873L110.555 228.169C110.589 228.095 110.63 228.027 110.677 227.966L109.829 229.065C109.944 228.916 110.066 228.801 110.216 228.685L109.116 229.534C109.231 229.459 109.347 229.398 109.476 229.344L108.179 229.894C108.512 229.778 108.844 229.71 109.197 229.663L107.751 229.86C108.98 229.717 110.216 229.778 111.451 229.819C113.183 229.873 114.907 229.975 116.625 230.192L115.179 229.996C120.074 230.654 124.799 232.134 129.64 233.091C132.464 233.648 135.295 234.103 138.106 234.734C140.917 235.366 143.632 236.052 146.389 236.73C157.177 239.371 168.216 241.483 179.255 239.046C185.08 237.756 190.559 235.04 194.945 230.973C191.917 229.215 188.896 227.45 185.868 225.691C185.678 226.411 185.44 227.11 185.155 227.796L185.705 226.499C185.176 227.694 184.51 228.801 183.723 229.846L184.571 228.746C183.444 230.192 182.127 231.448 180.681 232.575L181.781 231.727C179.269 233.648 176.479 235.128 173.573 236.357L174.869 235.807C169.744 237.953 164.353 239.399 158.847 240.159L160.293 239.962C154.325 240.763 148.283 240.756 142.322 239.969L143.768 240.166C137.99 239.378 132.335 237.857 126.951 235.61L128.248 236.16C124.806 234.707 121.506 232.962 118.37 230.932L115.627 241.055C117.867 241.096 120.101 241.293 122.321 241.585L120.875 241.388C133.659 243.126 146.334 248.15 159.397 246.453C160.897 246.256 162.126 245.977 163.24 244.864C164.183 243.92 164.889 242.379 164.828 241.021C164.767 239.663 164.305 238.163 163.24 237.179C162.255 236.276 160.789 235.407 159.397 235.59C155.181 236.14 150.938 235.957 146.728 235.4L148.174 235.597C137.264 234.103 126.707 230.41 115.62 230.199C113.332 230.159 110.901 231.91 110.385 234.185C109.829 236.615 110.786 238.957 112.884 240.315C123.176 246.989 135.275 250.642 147.489 251.334C159.702 252.027 172.12 249.671 182.759 243.988C188.923 240.695 194.517 235.549 196.351 228.59C196.941 226.35 195.984 223.58 193.852 222.46C191.72 221.339 189.1 221.611 187.273 223.308C186.696 223.838 186.106 224.347 185.488 224.829L186.588 223.98C184.802 225.338 182.854 226.452 180.79 227.334L182.086 226.784C179.262 227.972 176.295 228.719 173.26 229.14L174.707 228.943C170.212 229.541 165.684 229.405 161.203 228.807L162.649 229.004C154.787 227.918 147.183 225.589 139.437 223.933C135.723 223.138 131.968 222.575 128.275 221.686C125.037 220.905 121.812 220.056 118.505 219.594C115.199 219.133 111.648 218.698 108.267 218.956C106.006 219.133 103.739 219.615 102.164 221.4C100.12 223.716 99.8758 226.764 101.302 229.459C102.605 231.924 105.029 233.553 107.14 235.257C109.469 237.131 111.485 239.385 113.542 241.544C116.095 244.219 118.702 246.765 121.71 248.944C124.718 251.124 128.452 252.733 132.206 253.344C133.693 253.588 135.044 253.581 136.388 252.794C137.515 252.135 138.588 250.845 138.887 249.549C139.206 248.157 139.138 246.595 138.337 245.366C137.617 244.253 136.456 243.092 135.091 242.868L135.064 242.848Z" fill="#E54D1F"/>
</g>
<g style="mix-blend-mode:multiply">
<path d="M282.845 314.162C280.829 290.732 280.571 267.153 282.105 243.683C282.859 232.114 284.027 220.572 285.67 209.092C287.34 197.407 289.601 185.825 291.637 174.202C293.674 162.579 295.561 150.779 296.342 138.939C297.035 128.436 296.885 117.899 296.206 107.396C294.95 87.8905 291.827 68.5412 291.142 48.995C290.972 44.1068 290.958 39.205 291.148 34.3168C291.339 29.4285 291.515 25.2192 292.466 21.1457C292.696 20.168 292.968 19.1972 293.307 18.2535C293.647 17.3098 293.735 17.0857 294.373 15.9927C294.611 15.5785 294.869 15.1779 295.154 14.791C295.548 14.2478 294.821 15.1576 295.27 14.662C295.405 14.5126 295.534 14.3565 295.677 14.2139C295.799 14.0917 296.79 13.1819 296.383 13.501C296.831 13.1548 297.347 12.8153 297.856 12.5777C297.782 12.6116 298.515 12.598 298.039 12.5098C297.456 12.4012 298.325 12.8628 298.039 12.6048C298.909 13.3992 299.146 13.7251 299.764 14.7842C300.721 16.4204 301.224 18.3078 301.278 20.0458C301.332 21.9332 300.986 23.7052 300.246 25.192C299.431 26.8282 299.547 28.7903 300.884 30.1278C302.127 31.3702 304.306 31.7369 305.82 30.766C309.615 28.3355 313.594 25.6401 318.142 24.9408C319.955 24.6625 320.987 24.8051 322.487 25.2464C323.852 25.6537 325.122 26.4005 326.031 27.3239C326.16 27.4529 326.894 28.4373 326.507 27.8466C326.717 28.1725 326.914 28.4984 327.091 28.8379C326.738 28.1657 327.186 29.1162 327.24 29.2995C327.308 29.5507 327.369 29.8019 327.416 30.0599C327.362 29.6458 327.349 29.6661 327.389 30.1346C327.369 30.3722 327.192 31.3567 327.403 30.4808C327.321 30.8271 327.233 31.1666 327.118 31.4992C327.416 30.6506 326.833 31.9269 326.731 32.1035C326.337 32.7824 327.118 31.8251 326.48 32.4022C325.4 33.3934 325.02 33.76 323.662 34.1131C323.431 34.1742 323.194 34.2217 322.963 34.2624C323.397 34.2081 323.465 34.1945 323.16 34.2217C322.745 34.2353 322.338 34.2489 321.924 34.2081C322.868 34.2964 321.775 34.1131 321.625 34.0791C321.184 33.923 321.177 33.9298 321.605 34.0927C321.388 33.9841 321.177 33.8687 320.967 33.7329L317.83 41.1807C320.145 41.6084 321.897 42.4706 323.519 44.0796C323.852 44.4123 324.219 44.7518 324.497 45.1388C324.049 44.5142 324.938 46.3608 324.613 45.3696C324.687 45.6004 324.755 45.8313 324.796 46.0621C324.741 45.5597 324.728 45.5461 324.755 46.0214C324.728 46.5034 324.748 46.4762 324.816 45.9603C324.775 46.1843 324.728 46.4016 324.66 46.6188C324.531 47.2977 324.972 46.2386 324.463 47.033C323.954 47.8273 324.741 46.9447 324.178 47.4199C324.022 47.5829 323.859 47.739 323.682 47.8816C324.063 47.5897 324.063 47.5761 323.682 47.8341C323.485 47.9495 323.289 48.0581 323.085 48.1464C323.533 47.9495 323.54 47.9291 323.098 48.0785C322.63 48.1735 322.65 48.1803 323.16 48.1057C322.922 48.126 322.691 48.126 322.454 48.1124C323.268 48.1124 322.338 48.0649 322.094 47.9902C322.46 48.1803 322.42 48.16 321.971 47.9359C321.686 47.773 321.408 47.61 321.13 47.4335C320.491 47.0533 319.853 46.6663 319.208 46.2997C309.296 40.6171 297.87 37.2565 286.681 41.1874C284.604 41.9139 283.225 43.971 283.836 46.1979C284.386 48.2075 286.763 49.7758 288.847 49.0426C293.178 47.5218 297.653 47.1416 302.004 48.0445C306.764 49.029 311.149 51.0522 315.338 53.4759C317.531 54.7455 319.507 56.0083 322.094 56.2323C324.144 56.4089 326.364 55.825 328.082 54.6912C331.768 52.2471 333.764 47.7255 332.522 43.3871C331.028 38.1595 325.095 34.276 319.996 33.3391C318.007 32.9725 315.99 33.7193 315.189 35.695C314.435 37.5756 315.08 39.7142 316.852 40.7801C324.429 45.3289 334.844 39.4901 335.516 30.861C336.242 21.5055 325.74 15.8365 317.599 16.8617C311.727 17.6017 306.635 20.5957 301.733 23.7324L307.307 29.3063C309.676 24.5403 310.172 18.9256 308.305 13.888C306.343 8.5992 301.536 2.52285 295.181 4.92623C285.065 8.75535 283.789 21.2815 283.212 30.5284C281.942 50.9232 284.705 71.2026 286.729 91.4548C287.781 102.012 288.596 112.596 288.664 123.208C288.738 134.811 287.822 146.339 286.124 157.813C284.305 170.108 281.874 182.295 279.777 194.542C277.685 206.783 276.063 219.112 274.929 231.482C272.682 255.992 272.376 280.677 274.026 305.234C274.23 308.214 274.461 311.195 274.712 314.175C274.902 316.368 276.45 318.249 278.785 318.249C280.842 318.249 283.049 316.382 282.859 314.175L282.845 314.162Z" fill="#E54D1F"/>
<path d="M273.734 328.405C267.848 309.049 267.726 288.62 270.272 268.633C272.906 248.001 278.622 227.748 283.809 207.598C289.166 186.796 293.532 165.844 296.125 144.506C298.718 123.167 299.791 102.623 295.792 82.1264C294.937 77.727 293.762 73.3955 292.567 69.0775C291.576 65.5064 290.504 61.9489 289.085 58.5135C286.145 51.3713 281.895 45.3289 275.689 40.6443C274.135 39.4698 272.499 38.4242 270.801 37.467C268.887 36.3875 266.347 37.0121 265.227 38.9266C264.107 40.8412 264.766 43.4143 266.687 44.5006C268.377 45.4579 270.027 46.4966 271.575 47.6779C271.073 47.2977 271.976 48.0106 272.118 48.1328C272.458 48.418 272.79 48.7099 273.116 49.0018C273.802 49.6197 274.461 50.2646 275.085 50.9368C275.615 51.5071 276.117 52.0977 276.62 52.6952C276.715 52.8106 277.095 53.3062 276.64 52.7087C276.749 52.8513 276.85 52.9871 276.959 53.1365C277.231 53.5167 277.509 53.8969 277.767 54.2906C278.683 55.6553 279.498 57.081 280.231 58.5543C280.605 59.3011 280.951 60.0615 281.284 60.8219C281.474 61.2496 281.25 60.7404 281.223 60.6793C281.318 60.9033 281.406 61.1274 281.494 61.3514C281.65 61.752 281.807 62.1525 281.956 62.5531C282.601 64.2776 283.171 66.0224 283.701 67.7808C284.855 71.6031 285.887 75.473 286.837 79.3496C291.651 98.9501 290.653 119.807 288.507 139.76C286.274 160.576 282.132 181.106 276.979 201.379C271.854 221.543 266.11 241.612 263 262.217C259.945 282.476 259.226 303.285 263.924 323.361C264.494 325.785 265.146 328.188 265.865 330.571C266.504 332.676 268.717 334.013 270.876 333.416C273.035 332.818 274.366 330.517 273.721 328.405H273.734Z" fill="#E54D1F"/>
<path d="M254.283 9.08803C254.88 9.05408 255.464 8.96582 256.062 8.9183C256.299 8.89793 256.551 8.9183 256.788 8.89114C257.107 8.90472 256.978 8.87756 256.415 8.82325C256.768 8.93188 256.788 8.9183 256.462 8.79609C256.157 8.65352 256.15 8.66031 256.456 8.81646L256.673 8.95224C256.225 8.58563 256.123 8.50415 256.347 8.70783C256.442 8.7893 256.537 8.87756 256.625 8.97261C257.182 9.4818 256.225 8.24616 256.625 8.95224C256.734 9.14234 256.856 9.31886 256.958 9.50896C257.379 10.2965 256.917 9.3596 256.917 9.3596C256.944 9.3596 257.148 10.0317 257.182 10.1404C257.345 10.6699 257.447 11.1995 257.562 11.7358C257.732 12.4894 257.508 11.0841 257.555 11.6068C257.576 11.8377 257.603 12.0617 257.617 12.2925C257.657 12.8493 257.664 13.406 257.657 13.9559C257.644 14.4719 257.61 14.9879 257.562 15.497C257.501 16.1149 257.46 15.7958 257.589 15.3952C257.508 15.6464 257.501 15.9791 257.454 16.2371C257.263 17.2622 257.012 18.2806 256.707 19.2786C256.422 20.2088 256.157 21.3629 255.654 22.198C256.198 21.295 255.743 21.9808 255.627 22.2387C255.512 22.4967 255.396 22.7344 255.281 22.9788C255.05 23.4608 254.806 23.9293 254.555 24.4045C253.774 25.871 253.842 27.5954 254.874 28.9261C255.906 30.2568 257.481 30.6438 259.158 30.3858C257.868 30.5827 258.92 30.4333 259.246 30.4333C259.422 30.4333 260.393 30.4944 259.619 30.4333C258.845 30.3722 259.782 30.4944 259.972 30.5487C260.122 30.5895 260.264 30.6438 260.407 30.6845C261.16 30.9018 259.789 30.3586 260.176 30.5827C260.414 30.7117 260.658 30.8271 260.889 30.9629C261.025 31.0444 261.147 31.1326 261.283 31.2141C261.833 31.54 261.079 31.0715 261.025 30.9968C261.364 31.4653 261.982 31.8862 262.383 32.3207C262.715 32.6806 262.247 32.4701 262.186 32.0627C262.199 32.1442 262.43 32.4158 262.457 32.4565C262.613 32.6941 262.756 32.9318 262.885 33.1762C262.96 33.3187 263.021 33.4681 263.102 33.6039C263.313 33.9773 262.932 33.1626 262.932 33.183C263.021 33.5292 263.184 33.8551 263.272 34.2013C263.347 34.4661 263.367 34.7581 263.455 35.016C263.184 34.181 263.381 34.2828 263.401 34.6426C263.408 34.7988 263.421 34.9617 263.428 35.1179C263.435 35.403 263.428 35.6814 263.408 35.9665C263.394 36.1363 263.319 36.693 263.414 36.0344C263.516 35.3216 263.401 36.0548 263.367 36.211C263.245 36.8084 263.048 37.3719 262.844 37.949C262.702 38.3631 263.034 37.5145 263.021 37.5349C262.939 37.6503 262.878 37.8404 262.81 37.9694C262.647 38.2952 262.464 38.6143 262.267 38.9198C262.118 39.1643 261.948 39.3951 261.785 39.6327C261.385 40.2098 261.921 39.4087 261.968 39.3951C261.914 39.4087 261.663 39.7617 261.649 39.7685C261.215 40.2641 260.74 40.7326 260.237 41.1671C260.122 41.2689 259.959 41.3708 259.857 41.4862C259.85 41.4998 260.549 40.9838 260.19 41.2282C259.918 41.4183 259.646 41.6152 259.368 41.7917C258.811 42.1515 258.228 42.4706 257.623 42.7558C256.795 43.1427 258.248 42.5453 257.569 42.7829C257.182 42.9187 256.802 43.0613 256.408 43.1767C255.627 43.4143 254.833 43.5773 254.039 43.7266C253.536 43.8217 253.842 43.5705 254.215 43.713C254.086 43.6655 253.753 43.7674 253.611 43.7809C253.156 43.8217 252.694 43.8556 252.239 43.8692C251.37 43.9031 250.495 43.8896 249.626 43.8352C249.164 43.8081 248.702 43.7674 248.241 43.7198C248.037 43.6995 247.833 43.6723 247.623 43.6519C247.032 43.5908 248.634 43.8149 247.63 43.6519C246.713 43.5026 245.803 43.3396 244.9 43.1495C241.75 42.4774 239.258 45.0369 239.89 48.16C239.931 48.3704 239.971 48.5809 240.012 48.7914C240.1 49.287 239.863 49.3413 239.998 48.6081C239.937 48.9136 240.073 49.3277 240.094 49.64C240.148 50.5023 240.148 51.3713 240.087 52.2335C240.073 52.4508 240.046 52.6612 240.026 52.8785C239.978 53.4691 240.216 51.8194 240.053 52.6952C239.992 53.0346 239.937 53.3741 239.863 53.7136C239.679 54.5554 239.408 55.3633 239.123 56.178C238.838 56.9927 239.442 55.5127 239.191 56.0355C239.096 56.2256 239.014 56.4225 238.919 56.6126C238.77 56.9181 238.607 57.2168 238.43 57.5155C238.213 57.8821 237.969 58.2352 237.738 58.5882C237.439 59.0431 237.643 58.4321 237.914 58.3777C237.785 58.4049 237.527 58.8462 237.419 58.9684C237.14 59.2875 236.841 59.593 236.536 59.885C236.326 60.0818 235.945 60.2787 235.803 60.5231C236.142 59.9664 236.373 60.0954 235.945 60.3941C235.776 60.5096 235.613 60.625 235.436 60.7336C235.09 60.9509 234.737 61.1477 234.377 61.3311C234.194 61.4261 234.01 61.5076 233.827 61.5958C233.318 61.8402 234.812 61.2428 234.01 61.5144C233.705 61.6162 233.399 61.7316 233.087 61.8267C232.7 61.9421 232.306 62.0439 231.906 62.1254C231.75 62.1593 231.587 62.1865 231.43 62.2137C230.568 62.3766 232.429 62.1458 231.553 62.1933C230.826 62.234 230.113 62.268 229.38 62.2137C229.258 62.2069 228.45 62.1254 229.204 62.2069C229.957 62.2883 229.163 62.1865 229.034 62.1593C228.64 62.0779 228.253 61.9828 227.873 61.8606C227.724 61.8131 227.574 61.752 227.418 61.7045C226.597 61.4533 228.274 62.1458 227.506 61.7452C227.221 61.5958 226.929 61.4601 226.651 61.2971C226.481 61.1953 226.318 61.0866 226.148 60.978C225.816 60.7676 225.728 60.462 226.359 61.1613C226.121 60.8965 225.809 60.6929 225.558 60.4349C225.327 60.204 225.13 59.9461 224.906 59.7084C224.546 59.3282 225.497 60.5842 225.089 59.9257C225.015 59.8035 224.926 59.6881 224.852 59.5659C224.655 59.2603 224.478 58.9413 224.315 58.6154C224.254 58.4932 224.2 58.3302 224.125 58.2216C224.655 58.9956 224.363 58.8123 224.207 58.3845C224.085 58.0451 223.976 57.692 223.888 57.3458C223.84 57.1693 223.806 56.9927 223.765 56.8162C223.684 56.4021 223.786 55.7435 223.765 56.9384C223.786 56.2188 223.704 55.5127 223.745 54.793C223.793 54.0123 223.555 55.6485 223.698 55.1393C223.752 54.9356 223.779 54.7184 223.827 54.5147C223.915 54.1413 224.098 53.7747 224.18 53.4012C223.996 54.2703 223.854 54.1005 224.023 53.7882C224.125 53.5981 224.214 53.408 224.322 53.2247C224.41 53.0686 224.512 52.926 224.607 52.7699C225.089 51.9619 224.071 53.4013 224.56 52.8242C225.694 51.4731 226.23 49.4907 225.198 47.8884C224.295 46.4898 222.292 45.3289 220.595 46.0146C218.748 46.7614 216.895 47.5014 215.001 48.1057C214.104 48.3908 213.201 48.6488 212.285 48.8525C211.878 48.9407 211.477 49.029 211.063 49.0969C211.009 49.1037 210.004 49.253 210.683 49.1648C211.321 49.0833 210.268 49.1987 210.146 49.2123C209.277 49.2802 208.408 49.3006 207.539 49.2327C207.356 49.2191 207.132 49.158 206.949 49.1784C207.01 49.1784 208.001 49.3481 207.329 49.2259C206.935 49.1512 206.548 49.0765 206.161 48.9815C205.774 48.8864 205.394 48.7642 205.02 48.6352C204.871 48.5809 204.722 48.5266 204.572 48.4723C203.934 48.2347 204.844 48.5673 204.891 48.6081C204.667 48.3908 204.117 48.2347 203.839 48.0717C203.5 47.8816 203.174 47.6644 202.848 47.4471C202.298 47.0805 203.072 47.61 203.113 47.6644C203.004 47.5218 202.807 47.4132 202.671 47.291C202.413 47.0601 202.169 46.8225 201.938 46.5645C201.877 46.4966 201.728 46.2726 201.639 46.2183C202.169 46.5306 202.101 46.8564 201.796 46.4084C201.551 46.0621 201.361 45.6955 201.157 45.3289C200.974 45.003 201.171 44.9147 201.286 45.6683C201.266 45.5393 201.164 45.3492 201.123 45.2338C201.001 44.874 200.933 44.5142 200.838 44.1475C200.696 43.5976 200.893 45.2202 200.865 44.358C200.865 44.1883 200.845 44.0253 200.838 43.8556C200.831 43.489 200.988 42.9391 200.893 42.6064C201.062 43.1971 200.77 43.4007 200.886 42.8236C200.927 42.62 200.974 42.4163 201.028 42.2126C201.117 41.8867 201.232 41.5676 201.334 41.2486C201.592 40.4203 201.008 41.9071 201.266 41.3979C201.361 41.2078 201.449 41.0109 201.551 40.8208C201.748 40.4406 201.972 40.0672 202.21 39.7074C202.305 39.5648 202.407 39.4223 202.502 39.2797C202.99 38.5464 202.033 39.8092 202.42 39.3883C202.685 39.0964 202.929 38.7976 203.201 38.5261C203.473 38.2545 203.758 37.9897 204.05 37.7385L204.145 37.6571C204.477 37.3923 204.409 37.4398 203.948 37.8064C204.022 37.6367 204.498 37.4194 204.64 37.3244C205.428 36.8084 206.256 36.3807 207.098 35.9733C207.763 35.6474 206.969 36.0005 206.901 36.048C207.112 35.8986 207.444 35.8308 207.689 35.7425C208.177 35.566 208.666 35.403 209.169 35.2537C211.124 34.663 213.134 34.2828 215.15 33.9773C216.508 33.7668 217.655 32.375 217.995 31.1326C218.368 29.7816 218.001 28.1386 216.949 27.1677C216.386 26.6449 215.829 26.1154 215.299 25.5587C215.014 25.2599 214.743 24.9612 214.471 24.6489C214.349 24.5131 214.233 24.3706 214.118 24.2348C214.03 24.1261 213.568 23.4812 213.928 24.0107C214.315 24.5742 213.806 23.8342 213.758 23.7663C213.656 23.617 213.554 23.4676 213.453 23.3182C213.256 23.0195 213.059 22.714 212.882 22.4085C212.706 22.103 212.529 21.7907 212.373 21.4716C212.292 21.3154 212.224 21.1525 212.142 20.9895C211.735 20.1612 212.441 21.8518 212.142 20.9827C211.911 20.3106 211.742 19.6385 211.572 18.946C211.355 18.0702 211.626 19.6928 211.579 19.1089C211.565 18.9324 211.545 18.7627 211.538 18.5861C211.511 18.1856 211.511 17.785 211.538 17.3777C211.545 17.2147 211.565 17.0586 211.572 16.9024C211.606 16.3661 211.416 17.7986 211.525 17.2758C211.599 16.9228 211.66 16.5765 211.749 16.2235C211.83 15.918 211.925 15.6125 212.034 15.3137C212.088 15.1644 212.156 15.015 212.203 14.8657C211.878 15.9248 212.04 15.2526 212.183 14.9607C212.468 14.3836 212.794 13.8269 213.161 13.2973C213.208 13.2295 213.419 13.0054 213.446 12.9036C213.317 13.3856 212.957 13.4942 213.256 13.1548C213.527 12.8493 213.785 12.5369 214.07 12.245C214.328 11.9802 214.593 11.729 214.872 11.4914C214.994 11.3828 215.123 11.2809 215.245 11.1723C215.639 10.8261 214.573 11.6544 215.001 11.3556C215.605 10.9347 216.209 10.5273 216.868 10.1879C217.051 10.0928 217.234 10.0114 217.418 9.91631C217.757 9.73979 217.818 9.93668 217.112 10.0317C217.404 9.99099 217.743 9.79411 218.029 9.69906C218.402 9.57685 218.782 9.47501 219.169 9.37996C219.502 9.29849 219.841 9.2306 220.181 9.1695C220.384 9.13555 220.588 9.10161 220.792 9.06766C221.471 8.95903 219.529 9.21702 220.568 9.10161C221.471 9.00656 222.387 8.96582 223.297 8.9794C223.738 8.98619 224.186 9.00656 224.628 9.04729C224.852 9.06766 225.076 9.08803 225.307 9.11518C226.006 9.18308 224.315 8.96582 224.825 9.04729C224.967 9.06766 225.11 9.08803 225.252 9.11518C226.277 9.28491 227.289 9.54291 228.274 9.88916C228.43 9.94347 228.932 10.0385 229.047 10.1811C229.061 10.1947 228.022 9.71942 228.586 9.99099C228.694 10.0453 228.81 10.0928 228.925 10.1471C229.434 10.3916 229.937 10.6631 230.419 10.9551C230.636 11.0908 230.853 11.2334 231.064 11.376C231.172 11.4507 231.274 11.5254 231.383 11.6C231.892 11.9463 231.044 11.3353 231.03 11.3217C231.498 11.7562 232.008 12.1432 232.456 12.6048C232.653 12.8017 232.843 13.0054 233.026 13.2159C233.257 13.4807 233.793 14.3836 233.135 13.3041C233.488 13.8812 233.915 14.4108 234.255 14.9946C235.185 16.5901 235.66 18.3689 237.419 19.3126C239.971 20.684 243.325 19.9168 244.792 17.3301C245.369 16.3118 245.878 15.2662 246.53 14.2886C246.713 14.0102 246.903 13.7386 247.093 13.4739C247.175 13.3652 247.263 13.2566 247.338 13.148C246.659 14.1732 247.012 13.5621 247.209 13.3245C247.63 12.8085 248.078 12.3129 248.56 11.8444C248.818 11.5932 249.076 11.3488 249.347 11.118C249.456 11.023 249.571 10.9347 249.68 10.8396C250.04 10.5138 248.892 11.4032 249.456 11.0094C250.067 10.5884 250.678 10.1811 251.343 9.84842C251.479 9.78053 251.615 9.71942 251.751 9.65153C252.491 9.28491 250.827 9.97063 251.622 9.71264C251.988 9.59043 252.355 9.46143 252.728 9.3596C253.075 9.26455 253.428 9.20344 253.781 9.13555C254.337 9.02013 252.688 9.21702 253.55 9.1695C253.801 9.15592 254.052 9.12876 254.303 9.12197C256.428 9.02692 258.479 7.31604 258.377 5.04844C258.282 2.92342 256.585 0.873074 254.303 0.974912C250.488 1.15143 247.141 2.52285 244.174 4.87871C242.028 6.58281 240.284 8.80967 238.885 11.1519C238.613 11.6068 238.349 12.0753 238.104 12.5505C238.057 12.6456 237.996 12.7474 237.955 12.8493C237.846 13.1005 237.602 13.2498 238.023 12.89C238.973 12.0617 239.958 11.5729 241.214 12.1432C241.526 12.2857 242.504 12.8153 242.463 13.243C242.463 13.1955 242.266 12.8153 242.273 12.8289C242.124 12.4894 241.967 12.1568 241.804 11.8241C241.472 11.1655 241.098 10.5273 240.691 9.91631C238.987 7.38393 236.794 5.21138 234.133 3.68381C224.784 -1.68646 210.92 0.418196 205.455 10.3237C203.405 14.0442 202.814 18.4571 204.104 22.5307C205.394 26.6042 208.096 30.0803 211.219 32.9453L213.018 26.1358C208.87 26.7672 204.661 27.7923 201.042 30.0056C197.423 32.2189 194.192 35.9801 193.146 40.3252C192.101 44.6703 193.275 49.4296 196.541 52.6816C199.514 55.6485 203.676 57.1896 207.824 57.4205C213.039 57.7192 218.063 55.8114 222.808 53.8969L218.843 47.0873C215.951 50.5294 215.035 54.8541 216.012 59.2264C216.888 63.1641 219.583 66.8982 223.222 68.7041C231.458 72.798 241.696 69.0436 245.878 60.9848C248.281 56.3546 248.818 51.1065 247.793 46.0214L242.782 51.0318C246.849 51.9008 250.97 52.3353 255.104 51.7786C259.239 51.2219 262.736 49.7215 265.852 47.1212C268.486 44.9283 270.618 41.6831 271.283 38.2952C272.091 34.1538 271.086 30.2636 268.472 26.9708C267.345 25.5519 265.859 24.3027 264.209 23.5355C261.846 22.4356 259.572 22.1641 257.005 22.5578L261.609 28.5391C264.134 23.7867 266.042 18.3146 265.831 12.8628C265.723 10.0996 265.173 6.95621 263.543 4.64788C262.41 3.04562 261.011 1.85072 259.164 1.16501C257.535 0.56077 255.974 0.879863 254.317 0.968123C252.192 1.08354 250.142 2.76048 250.243 5.04165C250.338 7.14631 252.036 9.24418 254.317 9.11518L254.283 9.08803Z" fill="#E54D1F"/>
<path d="M291.902 160.46C292.493 160.386 293.07 160.386 293.654 160.46L292.567 160.318C292.954 160.379 293.328 160.46 293.701 160.576C294.041 160.684 294.509 161.024 293.457 160.44C293.599 160.522 293.755 160.576 293.898 160.651C294.217 160.82 294.516 161.017 294.821 161.207C295.453 161.608 294.068 160.549 294.618 161.051C294.767 161.187 294.91 161.316 295.052 161.452C295.195 161.587 295.331 161.737 295.46 161.879C295.568 162.008 295.962 162.497 295.514 161.927C295.066 161.357 295.446 161.852 295.534 161.995C295.643 162.158 295.738 162.327 295.833 162.497C295.928 162.667 296.003 162.85 296.091 163.02C295.534 161.961 295.853 162.436 295.962 162.776C296.084 163.149 296.166 163.522 296.227 163.909L296.084 162.823C296.159 163.407 296.159 163.984 296.084 164.568L296.227 163.482C296.166 163.869 296.064 164.235 295.955 164.615C295.738 165.396 296.301 163.95 296.105 164.303C296.016 164.459 295.948 164.622 295.86 164.778C295.758 164.962 295.643 165.131 295.534 165.308C295.188 165.871 296.206 164.527 295.738 165.057C295.494 165.328 295.256 165.593 294.991 165.837C294.855 165.96 294.713 166.068 294.577 166.191C295.46 165.376 295.113 165.783 294.815 165.98C294.516 166.177 294.19 166.347 293.871 166.516C293.246 166.856 294.815 166.17 294.183 166.394C294.013 166.455 293.844 166.516 293.674 166.571C293.273 166.693 292.866 166.781 292.452 166.836L293.538 166.693C292.941 166.761 292.357 166.768 291.759 166.693L292.846 166.836C292.37 166.768 291.909 166.652 291.454 166.489C289.444 165.77 286.905 167.304 286.443 169.334C285.921 171.622 287.136 173.57 289.288 174.344C294.19 176.11 299.696 173.604 302.527 169.497C305.596 165.05 304.415 158.736 300.389 155.28C298.08 153.298 295.011 151.906 291.902 152.3C290.782 152.442 289.852 152.66 289.023 153.495C288.317 154.201 287.788 155.362 287.829 156.373C287.869 157.385 288.222 158.519 289.023 159.252C289.763 159.931 290.863 160.576 291.902 160.447V160.46Z" fill="#E54D1F"/>
<path d="M274.848 239.249C272.661 236.201 269.525 234.544 265.784 234.293C262.45 234.069 258.995 235.4 256.639 237.756C254.147 240.254 252.857 243.723 252.742 247.213C252.62 250.75 253.903 254.111 256.041 256.881C258.438 259.984 261.839 262.115 265.567 263.276C267.603 263.908 270.102 262.53 270.577 260.432C271.08 258.218 269.912 256.093 267.732 255.421C267.454 255.333 267.176 255.245 266.897 255.143C266.558 255.021 265.906 254.573 266.823 255.129C266.327 254.824 265.764 254.62 265.254 254.321C265.003 254.172 264.752 254.016 264.508 253.853C264.406 253.785 264.304 253.71 264.195 253.642C263.632 253.269 264.351 253.771 264.413 253.826C263.985 253.425 263.516 253.079 263.109 252.658C262.905 252.454 262.708 252.237 262.518 252.02C261.873 251.273 262.858 252.549 262.457 251.966C262.104 251.45 261.772 250.934 261.486 250.377C261.432 250.268 261.378 250.153 261.323 250.044C261.174 249.745 261.256 249.515 261.439 250.329C261.391 250.105 261.276 249.881 261.208 249.657C261.127 249.392 261.059 249.128 260.998 248.856C260.97 248.741 260.95 248.625 260.923 248.51C260.74 247.695 260.977 249.257 260.95 248.768C260.916 248.252 260.875 247.743 260.896 247.227C260.902 246.948 260.936 246.677 260.957 246.398C260.998 245.869 260.794 247.295 260.916 246.779C260.95 246.622 260.977 246.466 261.011 246.317C261.072 246.045 261.14 245.781 261.222 245.523C261.269 245.36 261.629 244.47 261.337 245.129C261.045 245.787 261.459 244.898 261.527 244.769C261.656 244.531 261.799 244.294 261.948 244.07C262.471 243.275 261.473 244.558 261.934 244.056C262.118 243.852 262.294 243.649 262.491 243.459C262.573 243.377 262.661 243.302 262.749 243.221C263.218 242.766 262.539 243.384 262.457 243.418C262.708 243.316 262.953 243.078 263.19 242.936C263.367 242.834 263.618 242.759 263.774 242.637C263.204 243.092 263.034 242.915 263.408 242.8C263.51 242.766 263.618 242.725 263.72 242.698C263.964 242.624 264.216 242.556 264.46 242.501C264.569 242.481 264.677 242.467 264.786 242.44C265.268 242.311 263.761 242.515 264.467 242.488C265.051 242.467 265.641 242.542 266.218 242.515C266.212 242.515 265.315 242.311 265.675 242.454C265.831 242.515 266.049 242.529 266.205 242.569C266.449 242.63 266.687 242.732 266.931 242.793C267.413 242.909 266.123 242.386 266.558 242.624C266.68 242.691 266.816 242.746 266.945 242.814C267.196 242.949 267.427 243.119 267.678 243.262C268.106 243.506 267.026 242.664 267.359 243.017C267.454 243.119 267.576 243.207 267.678 243.309C267.936 243.56 268.54 244.416 267.814 243.398C268.445 244.28 269.165 244.973 270.251 245.271C271.229 245.543 272.526 245.421 273.388 244.864C275.099 243.757 276.178 241.144 274.848 239.29V239.249Z" fill="#E54D1F"/>
</g>
</svg>
