<svg width="166" height="78" viewBox="0 0 166 78" fill="none" xmlns="http://www.w3.org/2000/svg">
<g clip-path="url(#clip0_763_606)">
<path d="M33.7 54.63H27.4V53.62C27.89 51.78 28.14 48.3 28.14 43.18V33.84C28.14 29.27 27.94 25.82 27.54 23.49V22.48L34.81 21.97L51 44.69V32.59C51 31.03 50.89 29.31 50.68 27.44C50.47 25.54 50.22 24.2 49.94 23.44V22.43H56.43V23.44C56.25 24.21 56.08 25.71 55.92 27.95C55.77 30.16 55.69 32.14 55.69 33.88V44.83C55.69 46.61 55.78 48.56 55.97 50.67C56.15 52.79 56.31 54.07 56.43 54.53L50.4 55.13L32.83 30.52V44.5C32.83 48.36 33.12 51.4 33.7 53.61V54.62V54.63ZM99.86 23.44V22.43H107.5V23.44C106.06 25.46 104.31 29.77 102.26 36.37C100.21 42.93 98.43 49.02 96.92 54.63L89.93 55.27C89.5 52.23 87.8 45.72 84.82 35.72L83.49 31.21C82.88 33.05 82.32 34.75 81.83 36.32C81.37 37.88 79.73 43.99 76.91 54.63L69.87 55.27C69.78 52.69 67.69 45.01 63.61 32.22C62.66 29.25 61.94 27.18 61.45 26.01C60.96 24.84 60.47 23.99 59.98 23.43V22.42H68.44V23.71C68.44 25.8 68.92 28.37 69.87 31.44L74.61 48.32C78.47 35.5 80.47 26.87 80.59 22.42H87.63C87.81 23.92 88.26 26.15 88.96 29.09C89.67 32 91.52 38.41 94.53 48.32C94.71 47.68 95.14 46.2 95.82 43.9C96.53 41.57 97.06 39.74 97.43 38.43C98.56 34.26 99.25 31.07 99.5 28.86C99.75 26.65 99.87 24.84 99.87 23.43L99.86 23.44ZM115.68 37.38C115.68 41.61 116.74 44.89 118.85 47.22C121 49.55 123.66 50.72 126.85 50.72C129.24 50.72 132.61 49.62 136.97 47.41L138.67 49.89C136.37 51.39 134.79 52.37 133.93 52.83C133.1 53.29 131.8 53.8 130.02 54.35C128.27 54.9 126.52 55.18 124.78 55.18C120.33 55.18 116.55 53.69 113.42 50.72C110.29 47.75 108.73 43.76 108.73 38.76C108.73 33.76 110.52 29.7 114.11 26.57C117.73 23.44 122.21 21.88 127.54 21.88C131.13 21.88 134.59 22.68 137.94 24.27C137.54 26.2 136.67 28.09 135.32 29.93C133.2 28.37 131.29 27.29 129.57 26.71C127.85 26.1 126.27 25.79 124.83 25.79C123.39 25.79 122.19 25.87 121.15 26.02C119.55 27.12 118.24 28.63 117.19 30.53C116.18 32.43 115.67 34.72 115.67 37.38H115.68Z" fill="#104AE0"/>
<path d="M165.5 39C165.5 42.01 160.93 43.98 159.39 46.8C158.04 49.28 159.24 54.09 156.81 56.35C154.74 58.29 149.87 56.97 147.09 58.71C144.65 60.24 143.83 65.19 140.9 66.53C136.75 68.42 130.76 66.37 125.79 67.82C121.33 69.12 117.47 74.12 112.46 75C107.82 75.82 102.46 72.49 97.44 72.9C92.7 73.3 87.99 77.5 83 77.5C78.01 77.5 73.29 73.3 68.56 72.91C63.55 72.49 58.18 75.82 53.54 75.01C48.53 74.13 44.67 69.13 40.2 67.83C35.23 66.38 29.24 68.43 25.1 66.54C22.16 65.2 21.35 60.24 18.91 58.72C16.13 56.98 11.26 58.3 9.19 56.36C6.77 54.1 7.97 49.29 6.61 46.81C5.07 43.99 0.5 42.02 0.5 39.01C0.5 36 5.07 34.03 6.61 31.21C7.96 28.73 6.76 23.92 9.19 21.66C11.26 19.72 16.13 21.04 18.91 19.3C21.35 17.77 22.17 12.82 25.1 11.48C29.25 9.59001 35.24 11.64 40.21 10.19C44.67 8.89001 48.53 3.89001 53.54 3.01001C58.18 2.19001 63.54 5.52001 68.56 5.11001C73.3 4.71001 78.01 0.51001 83 0.51001C87.99 0.51001 92.71 4.71001 97.44 5.10001C102.45 5.52001 107.82 2.19001 112.46 3.00001C117.47 3.88001 121.33 8.88001 125.8 10.18C130.77 11.63 136.76 9.58001 140.9 11.47C143.84 12.81 144.65 17.77 147.09 19.29C149.87 21.03 154.74 19.71 156.81 21.65C159.23 23.91 158.03 28.72 159.39 31.2C160.93 34.02 165.5 35.99 165.5 39Z" stroke="#104AE0"/>
</g>
<defs>
<clipPath id="clip0_763_606">
<rect width="166" height="78" fill="white"/>
</clipPath>
</defs>
</svg>
