<svg viewBox="0 0 1604 33" fill="none" xmlns="http://www.w3.org/2000/svg">
<g clip-path="url(#clip0_775_170)">
<path d="M1603.02 19.92C1597.22 17.79 1593.27 14.9 1588.79 12.05C1580.18 6.58003 1572.05 1.41003 1555.39 1.41003C1538.73 1.41003 1530.6 6.58003 1521.99 12.05C1513.35 17.54 1504.42 23.22 1486.77 23.22C1469.12 23.22 1460.19 17.54 1451.55 12.05C1442.94 6.58003 1434.81 1.41003 1418.15 1.41003C1401.49 1.41003 1393.36 6.58003 1384.75 12.05C1376.11 17.54 1367.18 23.22 1349.53 23.22C1331.88 23.22 1322.95 17.54 1314.31 12.05C1305.71 6.58003 1297.58 1.41003 1280.93 1.41003C1264.28 1.41003 1256.15 6.58003 1247.54 12.05C1238.9 17.54 1229.96 23.22 1212.3 23.22C1194.64 23.22 1185.71 17.54 1177.07 12.05C1168.46 6.58003 1160.33 1.41003 1143.67 1.41003C1127.01 1.41003 1118.89 6.58003 1110.28 12.05C1101.64 17.54 1092.71 23.22 1075.06 23.22C1057.41 23.22 1048.48 17.54 1039.84 12.05C1031.23 6.58003 1023.1 1.41003 1006.44 1.41003C989.785 1.41003 981.655 6.58003 973.045 12.05C964.405 17.54 955.475 23.22 937.835 23.22C920.195 23.22 911.255 17.54 902.615 12.05C894.005 6.58003 885.875 1.41003 869.225 1.41003C852.575 1.41003 844.445 6.58003 835.835 12.05C827.195 17.54 818.265 23.22 800.615 23.22C782.965 23.22 774.035 17.54 765.395 12.05C756.785 6.58003 748.655 1.41003 732.005 1.41003C715.355 1.41003 707.215 6.58003 698.615 12.05C689.975 17.54 681.045 23.22 663.395 23.22C645.745 23.22 636.815 17.54 628.175 12.05C619.565 6.58003 611.435 1.41003 594.775 1.41003C578.115 1.41003 569.985 6.58003 561.375 12.05C552.735 17.54 543.795 23.22 526.145 23.22C508.495 23.22 499.555 17.54 490.915 12.05C482.315 6.58003 474.185 1.41003 457.525 1.41003C440.865 1.41003 432.735 6.58003 424.125 12.05C415.485 17.54 406.545 23.22 388.895 23.22C371.245 23.22 362.305 17.54 353.665 12.05C345.065 6.58003 336.935 1.41003 320.275 1.41003C303.615 1.41003 295.485 6.58003 286.875 12.05C278.235 17.54 269.295 23.22 251.645 23.22C233.995 23.22 225.045 17.54 216.395 12.05C207.785 6.58003 199.645 1.41003 182.985 1.41003C166.325 1.41003 158.195 6.58003 149.585 12.05C140.945 17.54 132.005 23.22 114.355 23.22C96.7049 23.22 87.7649 17.54 79.1249 12.05C70.5349 6.58003 62.4049 1.41003 45.7349 1.41003C29.0649 1.41003 20.9349 6.58003 12.3249 12.05C8.54486 14.45 4.58486 16.89 -0.0151367 18.87C-0.0151367 18.87 -0.0151367 32.36 -0.0151367 32.37H1603.02V19.92Z" fill="#FFA24B"/>
<path d="M1486.78 24.81C1469.68 24.81 1461.37 19.53 1452.58 13.93C1444.12 8.55 1435.38 2.99 1418.16 2.99C1400.94 2.99 1392.2 8.55 1383.74 13.93C1374.94 19.52 1366.64 24.81 1349.54 24.81C1332.44 24.81 1324.14 19.53 1315.34 13.94C1306.88 8.56 1298.14 3 1280.93 3C1263.72 3 1254.98 8.56 1246.52 13.93C1237.72 19.52 1229.41 24.81 1212.3 24.81C1195.19 24.81 1186.89 19.53 1178.09 13.93C1169.63 8.55 1160.89 2.99 1143.67 2.99C1126.45 2.99 1117.72 8.55 1109.26 13.93C1100.47 19.52 1092.16 24.81 1075.06 24.81C1057.96 24.81 1049.65 19.53 1040.86 13.93C1032.4 8.55 1023.66 2.99 1006.44 2.99C989.225 2.99 980.485 8.55 972.025 13.93C963.225 19.52 954.925 24.81 937.835 24.81C920.745 24.81 912.435 19.53 903.635 13.93C895.175 8.55 886.435 2.99 869.225 2.99C852.015 2.99 843.275 8.55 834.815 13.93C826.015 19.52 817.715 24.81 800.615 24.81C783.515 24.81 775.215 19.53 766.415 13.93C757.955 8.55 749.215 2.99 732.005 2.99C714.795 2.99 706.045 8.55 697.595 13.93C688.795 19.52 680.495 24.81 663.395 24.81C646.295 24.81 637.995 19.53 629.205 13.94C620.745 8.56 611.995 3 594.775 3C577.555 3 568.815 8.56 560.365 13.93C551.565 19.52 543.255 24.81 526.145 24.81C509.035 24.81 500.735 19.53 491.935 13.93C483.475 8.55 474.735 2.99 457.525 2.99C440.315 2.99 431.565 8.55 423.105 13.92C414.305 19.51 405.995 24.8 388.885 24.8C371.775 24.8 363.475 19.52 354.675 13.92C346.215 8.54 337.475 2.98 320.265 2.98C303.055 2.98 294.305 8.54 285.855 13.91C277.055 19.51 268.745 24.79 251.635 24.79C234.525 24.79 226.215 19.51 217.405 13.91C208.945 8.53 200.185 2.97 182.975 2.97C165.765 2.97 157.015 8.53 148.555 13.9C139.755 19.49 131.445 24.78 114.335 24.78C97.2249 24.78 88.9249 19.5 80.1249 13.9C71.6649 8.52 62.9249 2.96 45.7049 2.96C28.4849 2.96 19.7649 8.56 11.3049 13.94C7.59486 16.3 3.68486 18.24 -0.0151367 19.96V17.24C3.52486 15.6 6.07486 13.71 9.69486 11.41C18.5249 5.8 27.6449 0 45.7349 0C63.8249 0 72.9449 5.8 81.7649 11.41C90.1849 16.76 98.1349 21.82 114.365 21.82C130.595 21.82 138.555 16.76 146.975 11.41C155.795 5.8 164.915 0.01 183.005 0.01C201.095 0.01 210.215 5.81 219.045 11.41C227.475 16.76 235.425 21.82 251.665 21.82C267.905 21.82 275.855 16.76 284.265 11.41C293.085 5.8 302.205 0.01 320.295 0.01C338.385 0.01 347.495 5.81 356.315 11.42C364.735 16.77 372.685 21.83 388.915 21.83C405.145 21.83 413.105 16.77 421.525 11.42C430.345 5.81 439.465 0.02 457.555 0.02C475.645 0.02 484.755 5.82 493.575 11.42C501.995 16.77 509.945 21.83 526.175 21.83C542.405 21.83 550.365 16.77 558.785 11.42C567.605 5.81 576.725 0.02 594.815 0.02C612.905 0.02 622.025 5.82 630.845 11.42C639.265 16.77 647.215 21.83 663.435 21.83C679.655 21.83 687.605 16.78 696.025 11.42C704.845 5.81 713.965 0.01 732.045 0.01C750.125 0.01 759.245 5.81 768.065 11.42C776.485 16.77 784.435 21.83 800.655 21.83C816.875 21.83 824.825 16.78 833.245 11.42C842.065 5.81 851.185 0.01 869.265 0.01C887.345 0.01 896.465 5.81 905.285 11.42C913.705 16.77 921.655 21.83 937.875 21.83C954.095 21.83 962.045 16.78 970.455 11.42C979.275 5.81 988.395 0.01 1006.48 0.01C1024.57 0.01 1033.69 5.81 1042.51 11.42C1050.93 16.77 1058.88 21.83 1075.1 21.83C1091.32 21.83 1099.27 16.77 1107.69 11.42C1116.51 5.81 1125.62 0.01 1143.71 0.01C1161.8 0.01 1170.92 5.81 1179.74 11.42C1188.16 16.77 1196.11 21.83 1212.34 21.83C1228.57 21.83 1236.53 16.77 1244.95 11.42C1253.77 5.81 1262.89 0.02 1280.97 0.02C1299.05 0.02 1308.17 5.82 1316.98 11.43C1325.4 16.78 1333.35 21.84 1349.57 21.84C1365.79 21.84 1373.75 16.79 1382.16 11.43C1390.98 5.82 1400.1 0.02 1418.19 0.02C1436.28 0.02 1445.4 5.82 1454.22 11.43C1462.64 16.78 1470.59 21.84 1486.81 21.84C1503.03 21.84 1510.99 16.79 1519.4 11.43C1528.22 5.82 1537.34 0.02 1555.43 0.02C1573.52 0.02 1582.64 5.82 1591.46 11.43C1595.43 13.95 1598.54 16.33 1603.06 18.2V20.97C1598.3 19 1593.93 16.55 1589.85 13.96C1581.39 8.58 1572.65 3.02 1555.43 3.02C1538.21 3.02 1529.47 8.58 1521.01 13.96C1512.21 19.55 1503.91 24.84 1486.81 24.84L1486.78 24.81Z" fill="#104AE0"/>
</g>
<defs>
<clipPath id="clip0_775_170">
<rect width="1603.04" height="32.37" fill="white"/>
</clipPath>
</defs>
</svg>
