<svg viewBox="0 0 1604 34" fill="none" xmlns="http://www.w3.org/2000/svg">
<path d="M1603.05 0.0300347H93.0049H0.0148926V26.4C3.82489 24.63 7.19489 22.52 10.5949 20.35C19.2349 14.86 28.1649 9.18003 45.8149 9.18003C63.4649 9.18003 72.3949 14.86 81.0349 20.35C84.8949 22.8 88.6549 25.19 93.1249 27.09C93.1249 27.09 93.1249 27.05 93.1249 26.98C98.6949 29.37 105.355 31 114.695 31C131.365 31 139.495 25.83 148.095 20.36C156.735 14.87 165.665 9.19003 183.325 9.19003C200.985 9.19003 209.915 14.87 218.555 20.36C227.165 25.83 235.295 31 251.955 31C268.615 31 276.755 25.83 285.365 20.36C294.015 14.87 302.955 9.19003 320.615 9.19003C338.275 9.19003 347.205 14.87 355.845 20.36C364.455 25.83 372.585 31 389.245 31C405.905 31 414.035 25.83 422.635 20.36C431.275 14.87 440.205 9.19003 457.865 9.19003C475.525 9.19003 484.455 14.87 493.095 20.36C501.705 25.83 509.835 31 526.495 31C543.155 31 551.285 25.83 559.885 20.36C568.525 14.87 577.455 9.19003 595.115 9.19003C612.775 9.19003 621.705 14.87 630.345 20.36C638.955 25.83 647.085 31 663.745 31C680.405 31 688.535 25.83 697.145 20.36C705.785 14.87 714.715 9.19003 732.365 9.19003C750.015 9.19003 758.945 14.87 767.585 20.36C776.195 25.83 784.325 31 800.975 31C817.625 31 825.755 25.83 834.365 20.36C843.005 14.87 851.935 9.19003 869.585 9.19003C887.235 9.19003 896.165 14.87 904.805 20.36C913.415 25.83 921.545 31 938.195 31C954.845 31 962.985 25.83 971.585 20.36C980.225 14.87 989.155 9.19003 1006.8 9.19003C1024.45 9.19003 1033.37 14.87 1042.01 20.36C1050.62 25.83 1058.75 31 1075.41 31C1092.07 31 1100.2 25.83 1108.81 20.36C1117.45 14.87 1126.38 9.19003 1144.03 9.19003C1161.68 9.19003 1170.61 14.87 1179.25 20.36C1187.85 25.83 1195.98 31 1212.64 31C1229.3 31 1237.44 25.83 1246.04 20.36C1254.68 14.87 1263.61 9.19003 1281.27 9.19003C1298.93 9.19003 1307.87 14.87 1316.51 20.36C1325.12 25.83 1333.25 31 1349.9 31C1366.55 31 1374.68 25.83 1383.28 20.36C1391.92 14.87 1400.85 9.19003 1418.5 9.19003C1436.15 9.19003 1445.08 14.87 1453.72 20.36C1462.33 25.83 1470.46 31 1487.12 31C1503.78 31 1511.91 25.83 1520.52 20.36C1529.16 14.87 1538.09 9.19003 1555.74 9.19003C1573.39 9.19003 1582.32 14.87 1590.96 20.36C1594.82 22.81 1598.58 25.2 1603.05 27.1V0.0300347Z" fill="#FFA24B"/>
<path d="M1486.81 33.4301C1469.71 33.4301 1461.4 28.1501 1452.61 22.5501C1444.15 17.1701 1435.41 11.6101 1418.19 11.6101C1400.97 11.6101 1392.23 17.1701 1383.77 22.5501C1374.97 28.1401 1366.67 33.4301 1349.57 33.4301C1332.47 33.4301 1324.17 28.1501 1315.37 22.5601C1306.91 17.1801 1298.17 11.6201 1280.96 11.6201C1263.75 11.6201 1255.01 17.1801 1246.55 22.5501C1237.75 28.1401 1229.44 33.4301 1212.33 33.4301C1195.22 33.4301 1186.92 28.1501 1178.12 22.5501C1169.66 17.1701 1160.92 11.6101 1143.7 11.6101C1126.48 11.6101 1117.75 17.1701 1109.29 22.5501C1100.5 28.1401 1092.19 33.4301 1075.09 33.4301C1057.99 33.4301 1049.68 28.1501 1040.89 22.5501C1032.43 17.1701 1023.69 11.6101 1006.47 11.6101C989.255 11.6101 980.515 17.1701 972.055 22.5501C963.255 28.1401 954.955 33.4301 937.865 33.4301C920.775 33.4301 912.465 28.1501 903.665 22.5501C895.205 17.1701 886.465 11.6101 869.255 11.6101C852.045 11.6101 843.305 17.1701 834.845 22.5501C826.045 28.1401 817.745 33.4301 800.645 33.4301C783.545 33.4301 775.245 28.1501 766.445 22.5501C757.985 17.1701 749.245 11.6101 732.035 11.6101C714.825 11.6101 706.075 17.1701 697.625 22.5501C688.825 28.1401 680.525 33.4301 663.425 33.4301C646.325 33.4301 638.025 28.1501 629.235 22.5601C620.775 17.1801 612.025 11.6201 594.805 11.6201C577.585 11.6201 568.845 17.1801 560.395 22.5501C551.595 28.1401 543.285 33.4301 526.175 33.4301C509.065 33.4301 500.765 28.1501 491.965 22.5501C483.505 17.1701 474.765 11.6101 457.555 11.6101C440.345 11.6101 431.595 17.1701 423.135 22.5401C414.335 28.1301 406.025 33.4201 388.915 33.4201C371.805 33.4201 363.505 28.1401 354.705 22.5401C346.245 17.1601 337.505 11.6001 320.295 11.6001C303.085 11.6001 294.335 17.1601 285.885 22.5301C277.085 28.1301 268.775 33.4101 251.665 33.4101C234.555 33.4101 226.245 28.1301 217.435 22.5301C208.975 17.1501 200.215 11.5901 183.005 11.5901C165.795 11.5901 157.045 17.1501 148.585 22.5201C139.785 28.1101 131.475 33.4001 114.365 33.4001C97.2549 33.4001 88.9549 28.1201 80.1549 22.5201C71.6949 17.1401 62.9549 11.5801 45.7349 11.5801C28.5149 11.5801 19.7649 17.1401 11.3049 22.5201C7.59486 24.8801 3.68486 26.8201 -0.0151367 28.5401V25.8201C3.52486 24.1801 6.07486 22.2901 9.69486 19.9901C18.5149 14.3801 27.6449 8.58008 45.7349 8.58008C63.8249 8.58008 72.9449 14.3801 81.7649 19.9901C90.1849 25.3401 98.1349 30.4001 114.365 30.4001C130.595 30.4001 138.555 25.3401 146.975 19.9901C155.795 14.3801 164.915 8.59008 183.005 8.59008C201.095 8.59008 210.215 14.3901 219.045 19.9901C227.475 25.3401 235.425 30.4001 251.665 30.4001C267.905 30.4001 275.855 25.3401 284.265 19.9901C293.085 14.3801 302.205 8.59008 320.295 8.59008C338.385 8.59008 347.495 14.3901 356.315 20.0001C364.735 25.3501 372.685 30.4101 388.915 30.4101C405.145 30.4101 413.105 25.3501 421.525 20.0001C430.345 14.3901 439.465 8.60008 457.555 8.60008C475.645 8.60008 484.755 14.4001 493.575 20.0001C501.995 25.3501 509.945 30.4101 526.175 30.4101C542.405 30.4101 550.365 25.3501 558.785 20.0001C567.605 14.3901 576.725 8.60008 594.815 8.60008C612.905 8.60008 622.025 14.4001 630.845 20.0001C639.265 25.3501 647.215 30.4101 663.435 30.4101C679.655 30.4101 687.605 25.3601 696.025 20.0001C704.845 14.3901 713.965 8.59008 732.045 8.59008C750.125 8.59008 759.245 14.3901 768.065 20.0001C776.485 25.3501 784.435 30.4101 800.655 30.4101C816.875 30.4101 824.825 25.3601 833.245 20.0001C842.065 14.3901 851.185 8.59008 869.265 8.59008C887.345 8.59008 896.465 14.3901 905.285 20.0001C913.705 25.3501 921.655 30.4101 937.875 30.4101C954.095 30.4101 962.045 25.3601 970.455 20.0001C979.275 14.3901 988.395 8.59008 1006.48 8.59008C1024.57 8.59008 1033.69 14.3901 1042.51 20.0001C1050.93 25.3501 1058.88 30.4101 1075.1 30.4101C1091.32 30.4101 1099.27 25.3501 1107.69 20.0001C1116.51 14.3901 1125.62 8.59008 1143.71 8.59008C1161.8 8.59008 1170.92 14.3901 1179.74 20.0001C1188.16 25.3501 1196.11 30.4101 1212.34 30.4101C1228.57 30.4101 1236.53 25.3501 1244.95 20.0001C1253.77 14.3901 1262.89 8.60008 1280.97 8.60008C1299.05 8.60008 1308.17 14.4001 1316.98 20.0101C1325.4 25.3601 1333.35 30.4201 1349.57 30.4201C1365.79 30.4201 1373.75 25.3701 1382.16 20.0101C1390.98 14.4001 1400.1 8.60008 1418.19 8.60008C1436.28 8.60008 1445.4 14.4001 1454.22 20.0101C1462.64 25.3601 1470.59 30.4201 1486.81 30.4201C1503.03 30.4201 1510.99 25.3701 1519.4 20.0101C1528.22 14.4001 1537.34 8.60008 1555.43 8.60008C1573.52 8.60008 1582.64 14.4001 1591.46 20.0101C1595.43 22.5301 1598.54 24.9101 1603.06 26.7801V29.5501C1598.3 27.5801 1593.93 25.1301 1589.85 22.5401C1581.39 17.1601 1572.65 11.6001 1555.43 11.6001C1538.21 11.6001 1529.47 17.1601 1521.01 22.5401C1512.21 28.1301 1503.91 33.4201 1486.81 33.4201V33.4301Z" fill="#104AE0"/>
</svg>
