<svg width="1440" height="18" viewBox="0 0 1440 18" fill="none" xmlns="http://www.w3.org/2000/svg">
<path d="M-0.5 1.67688C29.5224 1.67688 29.5224 16.3154 59.5447 16.3154C89.5671 16.3154 89.5566 1.67688 119.579 1.67688C149.601 1.67688 149.601 16.3154 179.624 16.3154C209.646 16.3154 209.636 1.67688 239.658 1.67688C269.68 1.67688 269.68 16.3154 299.692 16.3154C329.704 16.3154 329.714 1.67688 359.737 1.67688C389.759 1.67688 389.759 16.3154 419.782 16.3154C449.804 16.3154 449.793 1.67688 479.816 1.67688C509.838 1.67688 509.838 16.3154 539.86 16.3154C569.883 16.3154 569.883 1.67688 599.895 1.67688C629.907 1.67688 629.917 16.3154 659.929 16.3154C689.941 16.3154 689.951 1.67688 719.963 1.67688C749.975 1.67688 749.985 16.3154 779.997 16.3154C810.009 16.3154 810.02 1.67688 840.031 1.67688C870.043 1.67688 870.054 16.3154 900.076 16.3154C930.099 16.3154 930.099 1.67688 960.121 1.67688C990.143 1.67688 990.143 16.3154 1020.17 16.3154C1050.19 16.3154 1050.19 1.67688 1080.21 1.67688C1110.23 1.67688 1110.23 16.3154 1140.26 16.3154C1170.28 16.3154 1170.28 1.67688 1200.3 1.67688C1230.32 1.67688 1230.32 16.3154 1260.34 16.3154C1290.37 16.3154 1290.37 1.67688 1320.39 1.67688C1350.41 1.67688 1350.41 16.3154 1380.44 16.3154C1410.48 16.3154 1410.47 1.67688 1440.5 1.67688" stroke="#104AE0" stroke-width="3" stroke-miterlimit="10"/>
</svg>
